{"glyphs":{"0":{"ha":864,"x_min":68,"x_max":1172,"o":"m 197 0 q 92 35 117 0 q 97 144 68 69 l 363 838 q 442 947 392 913 q 574 982 493 982 l 1046 982 q 1149 947 1126 982 q 1143 838 1172 913 l 878 144 q 799 35 849 69 q 669 0 750 0 l 197 0 m 461 297 q 453 239 444 254 q 497 224 463 224 l 539 224 q 594 239 574 224 q 631 297 614 254 l 779 685 q 788 743 796 728 q 744 758 779 758 l 703 758 q 647 743 668 758 q 610 685 626 728 l 461 297 z "},"1":{"ha":429,"x_min":82,"x_max":764,"o":"m 454 982 l 764 982 l 388 0 l 82 0 l 374 758 l 313 758 l 454 982 z "},"2":{"ha":849,"x_min":43,"x_max":1149,"o":"m 467 307 q 497 360 481 343 q 538 381 513 376 l 789 381 q 920 415 869 381 q 1000 525 971 450 l 1119 838 q 1124 947 1149 913 q 1019 982 1100 982 l 571 982 q 441 947 490 982 q 363 838 392 913 l 306 686 l 611 686 q 647 744 626 729 q 703 758 668 758 l 721 758 q 764 743 756 758 q 756 685 772 728 l 753 675 q 716 618 736 632 q 661 604 696 604 l 431 604 q 299 569 350 604 q 219 460 249 535 l 43 0 l 751 0 l 893 224 l 435 224 l 467 307 z "},"3":{"ha":761,"x_min":81,"x_max":1069,"o":"m 81 0 l 567 0 q 697 35 647 0 q 775 144 746 69 l 864 378 q 868 406 869 390 q 863 438 867 422 q 852 467 858 453 q 842 488 846 481 q 869 509 853 496 q 902 538 886 522 q 931 570 918 554 q 949 599 944 586 l 1040 838 q 1047 947 1069 913 q 943 982 1024 982 l 397 982 l 372 758 l 642 758 q 685 743 676 758 q 676 685 693 728 l 672 674 q 635 615 656 631 q 581 600 615 600 l 315 600 l 289 379 l 496 379 q 539 364 531 379 q 531 306 547 349 l 526 294 q 491 238 511 251 q 436 224 471 224 l 108 224 l 81 0 z "},"4":{"ha":921,"x_min":144,"x_max":1136,"o":"m 949 493 l 1136 982 l 638 982 l 210 436 l 144 269 l 561 269 l 458 0 l 760 0 l 863 269 l 938 269 l 1082 493 l 949 493 m 558 493 l 732 714 l 647 493 l 558 493 z "},"5":{"ha":849,"x_min":97,"x_max":1183,"o":"m 618 307 q 629 360 632 343 q 603 381 626 376 l 196 381 l 426 982 l 1183 982 l 1071 686 l 765 686 l 793 758 l 644 758 l 585 604 l 882 604 q 987 569 963 604 q 982 460 1011 535 l 861 144 q 781 35 832 69 q 650 0 731 0 l 97 0 l 128 224 l 522 224 q 577 239 557 224 q 614 297 597 254 l 618 307 z "},"6":{"ha":847,"x_min":68,"x_max":1182,"o":"m 1038 604 l 861 144 q 783 35 832 69 q 653 0 733 0 l 197 0 q 92 35 117 0 q 97 144 68 69 l 363 838 q 442 947 392 913 q 574 982 493 982 l 1182 982 l 1036 758 l 703 758 q 647 743 668 758 q 610 685 626 728 l 579 604 l 1038 604 m 656 382 l 494 382 l 461 297 q 453 239 444 254 q 497 224 463 224 l 531 224 q 585 238 565 224 q 622 296 606 253 l 656 382 z "},"7":{"ha":764,"x_min":86,"x_max":1099,"o":"m 86 0 l 401 0 l 1014 758 l 1099 982 l 458 982 l 313 758 l 694 758 l 86 0 z "},"8":{"ha":858,"x_min":68,"x_max":1167,"o":"m 571 982 l 1040 982 q 1144 947 1121 982 q 1138 838 1167 913 l 1046 599 q 1028 570 1042 586 q 999 538 1015 554 q 967 509 983 522 q 939 488 950 496 q 949 467 943 481 q 960 438 956 453 q 965 406 964 422 q 961 378 967 390 l 872 144 q 794 35 843 69 q 664 0 744 0 l 194 0 q 91 35 114 0 q 97 144 68 69 l 186 378 q 205 406 192 390 q 233 437 218 421 q 265 466 249 453 q 294 488 282 479 q 283 509 289 496 q 272 538 276 522 q 267 570 268 554 q 271 599 267 586 l 363 838 q 441 947 392 913 q 571 982 490 982 m 496 221 l 532 221 q 588 236 567 221 q 624 294 608 251 l 628 306 q 636 364 644 349 q 593 379 628 379 l 557 379 q 501 364 522 379 q 464 306 481 349 l 460 294 q 453 236 444 251 q 496 221 461 221 m 642 600 l 678 600 q 733 615 713 600 q 769 674 753 631 l 774 685 q 782 743 790 728 q 739 758 774 758 l 703 758 q 647 743 668 758 q 610 685 626 728 l 606 674 q 598 615 589 631 q 642 600 607 600 z "},"9":{"ha":847,"x_min":42,"x_max":1156,"o":"m 186 378 l 363 838 q 441 947 392 913 q 571 982 490 982 l 1026 982 q 1131 947 1107 982 q 1126 838 1156 913 l 861 144 q 781 35 832 69 q 650 0 731 0 l 42 0 l 189 224 l 522 224 q 577 239 557 224 q 614 297 597 254 l 644 378 l 186 378 m 569 600 l 731 600 l 763 685 q 771 743 779 728 q 728 758 763 758 l 694 758 q 639 744 660 758 q 603 686 618 729 l 569 600 z "}," ":{"ha":510,"x_min":0,"x_max":0,"o":""},"!":{"ha":358,"x_min":42,"x_max":693,"o":"m 128 224 l 42 0 l 317 0 l 403 224 l 128 224 m 693 982 l 418 982 l 165 322 l 440 322 l 693 982 z "},"\"":{"ha":586,"x_min":333,"x_max":921,"o":"m 418 982 l 333 758 l 411 758 l 354 611 l 557 758 l 642 982 l 418 982 m 697 982 l 613 758 l 690 758 l 633 611 l 836 758 l 921 982 l 697 982 z "},"#":{"ha":1040,"x_min":126,"x_max":1289,"o":"m 1289 739 l 1142 739 l 1235 982 l 931 982 l 838 739 l 769 739 l 863 982 l 558 982 l 465 739 l 379 739 l 235 519 l 382 519 l 358 458 l 272 458 l 126 239 l 274 239 l 182 0 l 486 0 l 578 239 l 646 239 l 554 0 l 858 0 l 950 239 l 1038 239 l 1182 458 l 1035 458 l 1058 519 l 1146 519 l 1289 739 m 686 519 l 754 519 l 731 458 l 663 458 l 686 519 z "},"$":{"ha":849,"x_min":97,"x_max":1157,"o":"m 614 297 q 577 239 597 254 q 522 224 557 224 l 128 224 l 97 0 l 315 0 l 263 -136 l 482 -136 l 535 0 l 650 0 q 781 35 731 0 q 861 144 832 69 l 982 460 q 987 569 1011 535 q 882 604 963 604 l 651 604 q 608 618 617 604 q 615 675 599 632 l 618 685 q 656 743 635 728 q 711 758 676 758 l 729 758 q 772 744 764 758 q 765 686 781 729 l 1071 686 l 1128 838 q 1134 947 1157 913 q 1031 982 1111 982 l 910 982 l 963 1119 l 743 1119 l 690 982 l 582 982 q 451 947 501 982 q 371 838 400 913 l 251 525 q 247 415 222 450 q 351 381 271 381 l 603 381 q 629 360 626 376 q 618 307 632 343 l 614 297 z "},"%":{"ha":1092,"x_min":246,"x_max":1239,"o":"m 317 492 l 536 492 q 600 506 578 492 l 283 0 l 571 0 l 801 368 l 692 82 q 688 19 675 39 q 746 0 700 0 l 965 0 q 1082 82 1050 0 l 1207 408 q 1154 490 1239 490 l 935 490 q 868 475 918 490 l 1185 982 l 897 982 l 668 614 l 778 900 q 724 982 810 982 l 504 982 q 431 963 458 982 q 388 900 403 943 l 263 574 q 258 511 246 531 q 317 492 271 492 m 889 154 l 958 336 q 982 357 967 357 l 1001 357 q 1008 336 1017 357 l 939 154 q 915 133 931 133 l 896 133 q 889 154 881 133 m 458 646 l 529 828 q 553 849 538 849 l 572 849 q 579 828 588 849 l 508 646 q 486 625 501 625 l 467 625 q 458 646 451 625 z "},"&":{"ha":871,"x_min":68,"x_max":1113,"o":"m 1079 651 l 786 651 l 747 549 l 633 685 q 671 743 650 728 q 726 758 692 758 l 1028 758 l 1113 982 l 594 982 q 465 947 514 982 q 386 838 415 913 l 294 599 q 290 538 285 572 q 307 488 296 504 q 278 465 296 479 q 241 436 260 451 q 207 406 222 421 q 186 378 192 390 l 97 144 q 91 35 68 69 q 194 0 114 0 l 678 0 q 885 144 828 0 l 1079 651 m 488 365 l 589 226 q 557 221 579 221 l 506 221 q 458 236 471 221 q 460 294 444 251 l 488 365 z "},"'":{"ha":307,"x_min":333,"x_max":642,"o":"m 418 982 l 333 758 l 411 758 l 354 611 l 557 758 l 642 982 l 418 982 z "},"(":{"ha":578,"x_min":68,"x_max":933,"o":"m 497 0 l 194 0 q 91 35 114 0 q 97 144 68 69 l 363 838 q 441 947 392 913 q 571 982 490 982 l 933 982 l 789 758 l 703 758 q 647 743 668 758 q 610 685 626 728 l 460 294 q 453 238 444 251 q 497 224 463 224 l 642 224 l 497 0 z "},")":{"ha":578,"x_min":81,"x_max":886,"o":"m 81 0 l 383 0 q 513 35 464 0 q 592 144 563 69 l 857 838 q 863 947 886 913 q 760 982 840 982 l 397 982 l 372 758 l 458 758 q 501 743 493 758 q 493 685 510 728 l 343 294 q 308 238 328 251 q 253 224 288 224 l 108 224 l 81 0 z "},"*":{"ha":440,"x_min":356,"x_max":757,"o":"m 697 797 l 686 814 q 666 835 669 831 q 650 851 663 840 l 707 851 q 731 856 728 851 q 751 930 746 896 q 735 996 757 964 l 719 997 q 677 973 692 981 q 650 963 663 965 q 674 998 665 982 q 689 1029 682 1014 q 659 1040 678 1035 q 624 1044 640 1044 q 594 1040 614 1044 q 540 1029 574 1036 q 529 986 533 1001 q 531 958 525 971 l 469 996 q 402 927 424 964 q 365 853 381 890 l 439 853 l 436 846 q 415 833 424 839 q 397 822 406 828 q 379 807 389 815 q 356 786 369 799 q 456 706 369 738 l 465 715 q 485 731 478 725 q 497 743 492 738 q 506 755 501 749 q 517 769 510 761 q 522 742 518 754 q 536 706 525 729 q 697 797 628 740 z "},"+":{"ha":626,"x_min":179,"x_max":822,"o":"m 517 246 l 567 378 l 676 378 l 822 600 l 653 600 l 703 731 l 483 731 l 433 600 l 326 600 l 179 378 l 347 378 l 297 246 l 517 246 z "},",":{"ha":307,"x_min":42,"x_max":351,"o":"m 128 224 l 42 0 l 119 0 l 63 -147 l 265 0 l 351 224 l 128 224 z "},"-":{"ha":531,"x_min":182,"x_max":726,"o":"m 726 600 l 583 379 l 182 379 l 326 600 l 726 600 z "},".":{"ha":307,"x_min":42,"x_max":351,"o":"m 128 224 l 42 0 l 265 0 l 351 224 l 128 224 z "},"/":{"ha":569,"x_min":21,"x_max":925,"o":"m 21 0 l 626 982 l 925 982 l 319 0 l 21 0 z "},":":{"ha":307,"x_min":42,"x_max":522,"o":"m 128 224 l 42 0 l 265 0 l 351 224 l 128 224 m 299 668 l 213 444 l 436 444 l 522 668 l 299 668 z "},";":{"ha":307,"x_min":42,"x_max":522,"o":"m 299 668 l 213 444 l 436 444 l 522 668 l 299 668 m 128 224 l 42 0 l 119 0 l 63 -147 l 265 0 l 351 224 l 128 224 z "},"<":{"ha":588,"x_min":217,"x_max":943,"o":"m 567 0 l 261 0 l 217 493 l 638 982 l 943 982 l 522 493 l 567 0 z "},"=":{"ha":564,"x_min":126,"x_max":813,"o":"m 706 458 l 561 239 l 126 239 l 272 458 l 706 458 m 813 739 l 669 519 l 235 519 l 379 739 l 813 739 z "},">":{"ha":588,"x_min":21,"x_max":749,"o":"m 21 0 l 326 0 l 749 493 l 703 982 l 397 982 l 443 493 l 21 0 z "},"?":{"ha":779,"x_min":83,"x_max":1088,"o":"m 547 381 l 728 381 q 859 415 808 381 q 939 525 910 450 l 1058 838 q 1063 947 1088 913 q 958 982 1039 982 l 571 982 q 441 947 490 982 q 363 838 392 913 l 306 686 l 581 686 q 617 744 596 729 q 672 758 638 758 l 690 758 q 733 743 725 758 q 725 685 742 728 l 722 675 q 685 618 706 632 q 631 604 665 604 l 471 604 q 340 569 390 604 q 260 460 289 535 l 207 322 l 482 322 q 508 363 493 350 q 547 381 524 376 m 169 224 l 83 0 l 358 0 l 444 224 l 169 224 z "},"@":{"ha":1208,"x_min":56,"x_max":1529,"o":"m 1108 247 q 1239 282 1189 247 q 1317 392 1289 317 l 1501 871 q 1507 981 1529 946 q 1404 1015 1485 1015 l 585 1015 q 454 981 504 1015 q 376 871 404 946 l 85 111 q 78 1 56 36 q 182 -33 101 -33 l 1093 -33 l 1238 190 l 481 190 q 436 204 446 190 q 443 261 426 218 l 618 718 q 656 776 635 761 q 711 792 676 792 l 1106 792 q 1149 776 1140 792 q 1140 718 1157 761 l 1050 481 q 1014 424 1033 439 q 963 410 994 410 l 1056 653 q 1003 735 1088 735 l 772 735 q 699 715 726 735 q 654 653 671 696 l 531 329 q 526 267 514 286 q 585 247 539 247 l 1108 247 m 804 571 q 828 592 813 592 l 836 592 q 843 571 851 592 l 782 411 q 758 390 774 390 l 750 390 q 743 411 735 390 l 804 571 z "},"A":{"ha":1804,"x_min":315,"x_max":1892,"o":"m 1892 982 l 1328 982 q 1038 999 1176 982 q 772 1043 899 1015 q 531 1107 646 1071 q 315 1182 417 1143 q 370 1060 340 1115 q 440 961 400 1006 q 529 881 479 917 q 644 814 579 844 q 629 813 643 813 l 585 813 q 510 815 538 813 q 458 821 482 818 l 451 822 q 503 763 463 793 q 592 705 543 732 q 688 658 640 678 q 760 629 735 638 l 724 625 q 657 628 693 625 q 597 633 621 631 q 628 590 608 608 q 669 560 647 572 q 713 541 690 547 q 751 535 735 535 q 795 533 775 533 q 831 532 815 532 q 860 529 863 532 q 848 522 858 526 q 823 513 838 518 q 792 503 808 508 q 761 494 775 499 q 772 479 758 486 q 806 466 785 472 q 851 456 826 460 q 894 453 875 453 q 926 453 907 453 q 951 458 944 454 q 992 443 972 449 q 1030 433 1011 438 q 1068 425 1049 429 q 1111 413 1088 421 l 1104 399 l 860 0 l 1317 0 l 1461 224 l 1294 224 l 1565 665 l 1483 0 l 1783 0 l 1892 982 z "},"B":{"ha":1769,"x_min":315,"x_max":2078,"o":"m 1575 0 q 1705 35 1656 0 q 1783 144 1754 69 l 1872 378 q 1876 406 1878 390 q 1871 438 1875 422 q 1860 467 1867 453 q 1850 488 1854 481 q 1878 509 1861 496 q 1910 538 1894 522 q 1940 570 1926 554 q 1957 599 1953 586 l 2049 838 q 2055 947 2078 913 q 1951 982 2032 982 l 1326 982 q 1038 999 1176 982 q 772 1043 899 1015 q 531 1107 646 1071 q 315 1182 417 1143 q 370 1060 340 1115 q 440 961 400 1006 q 529 881 479 917 q 644 814 579 844 q 629 813 643 813 l 585 813 q 510 815 538 813 q 458 821 482 818 l 451 822 q 503 763 463 793 q 592 705 543 732 q 688 658 640 678 q 760 629 735 638 l 724 625 q 657 628 693 625 q 597 633 621 631 q 628 590 608 608 q 669 560 647 572 q 713 541 690 547 q 751 535 735 535 q 795 533 775 533 q 831 532 815 532 q 860 529 863 532 q 847 521 858 526 q 822 510 836 515 q 790 501 807 506 q 761 494 774 496 q 772 479 758 486 q 806 466 785 472 q 851 456 826 460 q 894 453 875 453 q 926 453 907 453 q 951 458 944 454 q 1033 437 1001 447 q 1107 413 1065 426 l 1104 396 l 953 0 l 1575 0 m 1589 600 l 1489 600 l 1550 758 l 1650 758 q 1693 743 1685 758 q 1685 685 1701 728 l 1681 674 q 1644 615 1664 631 q 1589 600 1624 600 m 1404 379 l 1504 379 q 1547 364 1539 379 q 1539 306 1556 349 l 1536 297 q 1499 239 1519 254 q 1444 224 1479 224 l 1344 224 l 1404 379 z "},"C":{"ha":1751,"x_min":315,"x_max":2060,"o":"m 1521 685 q 1558 743 1538 728 q 1614 758 1579 758 l 1632 758 q 1675 744 1667 758 q 1668 686 1683 729 l 1650 639 l 1956 639 l 2031 838 q 2037 947 2060 913 q 1933 982 2014 982 l 1328 982 q 1038 999 1176 982 q 772 1043 899 1015 q 531 1107 646 1071 q 315 1182 417 1143 q 370 1060 340 1115 q 440 961 400 1006 q 529 881 479 917 q 644 814 579 844 q 628 813 643 813 l 585 813 q 510 815 538 813 q 458 821 482 818 l 451 822 q 503 763 463 793 q 592 705 543 732 q 688 658 640 678 q 760 629 735 638 l 724 625 q 657 628 693 625 q 597 633 621 631 q 628 590 608 608 q 669 560 647 572 q 713 541 690 547 q 751 535 735 535 q 794 533 775 533 q 829 532 814 532 q 860 529 863 532 q 849 522 858 526 q 824 511 839 517 q 793 501 810 506 q 761 494 776 496 q 772 479 758 486 q 806 466 785 472 q 851 456 826 460 q 894 453 875 453 q 926 453 907 453 q 951 458 944 454 q 1033 437 1001 447 q 1107 413 1065 426 l 1104 396 l 1008 144 q 1003 35 979 69 q 1108 0 1028 0 l 1650 0 l 1796 224 l 1408 224 q 1365 239 1374 224 q 1372 297 1356 254 l 1521 685 z "},"D":{"ha":1769,"x_min":315,"x_max":2078,"o":"m 1575 0 q 1705 35 1656 0 q 1783 144 1754 69 l 2049 838 q 2055 947 2078 913 q 1951 982 2032 982 l 1326 982 q 1038 999 1176 982 q 772 1043 899 1015 q 531 1107 646 1071 q 315 1182 417 1143 q 370 1060 340 1115 q 440 961 400 1006 q 529 881 479 917 q 644 814 579 844 q 629 813 643 813 l 585 813 q 510 815 538 813 q 458 821 482 818 l 451 822 q 503 763 463 793 q 592 705 543 732 q 688 658 640 678 q 760 629 735 638 l 724 625 q 657 628 693 625 q 597 633 621 631 q 628 590 608 608 q 669 560 647 572 q 713 541 690 547 q 751 535 735 535 q 795 533 775 533 q 831 532 815 532 q 860 529 863 532 q 847 521 858 526 q 822 510 836 515 q 790 501 807 506 q 761 494 774 496 q 772 479 758 486 q 806 466 785 472 q 851 456 826 460 q 894 453 875 453 q 926 453 907 453 q 951 458 944 454 q 1033 437 1001 447 q 1107 413 1065 426 l 1106 407 l 950 0 l 1575 0 m 1547 758 l 1650 758 q 1693 743 1685 758 q 1685 685 1701 728 l 1536 297 q 1499 239 1519 254 q 1444 224 1479 224 l 1342 224 l 1547 758 z "},"E":{"ha":1671,"x_min":315,"x_max":2026,"o":"m 1590 0 l 1735 224 l 1342 224 l 1401 379 l 1674 379 l 1817 600 l 1486 600 l 1547 758 l 1882 758 l 2026 982 l 1326 982 q 1038 999 1176 982 q 772 1043 899 1015 q 531 1107 646 1071 q 315 1182 417 1143 q 370 1060 340 1115 q 440 961 400 1006 q 529 881 479 917 q 644 814 579 844 q 629 813 643 813 l 585 813 q 510 815 538 813 q 458 821 482 818 l 451 822 q 503 763 463 793 q 592 705 543 732 q 688 658 640 678 q 760 629 735 638 l 724 625 q 657 628 693 625 q 597 633 621 631 q 628 590 608 608 q 669 560 647 572 q 713 541 690 547 q 751 535 735 535 q 795 533 775 533 q 831 532 815 532 q 860 529 863 532 q 847 522 858 526 q 819 513 835 518 q 788 503 804 508 q 761 494 771 499 q 772 479 758 486 q 806 466 785 472 q 851 456 826 460 q 894 453 875 453 q 926 453 907 453 q 951 458 944 454 q 1033 437 1001 447 q 1107 413 1065 426 l 1106 407 l 950 0 l 1590 0 z "},"F":{"ha":1672,"x_min":315,"x_max":2028,"o":"m 1257 0 l 1403 379 l 1675 379 l 1818 600 l 1488 600 l 1549 758 l 1883 758 l 2028 982 l 1328 982 q 1038 999 1176 982 q 772 1043 899 1015 q 531 1107 646 1071 q 315 1182 417 1143 q 370 1060 340 1115 q 440 961 400 1006 q 529 881 479 917 q 644 814 579 844 q 628 813 643 813 l 585 813 q 510 815 538 813 q 458 821 482 818 l 451 822 q 503 763 463 793 q 592 705 543 732 q 688 658 640 678 q 760 629 735 638 l 722 624 q 656 627 692 624 q 597 633 621 631 q 628 590 608 608 q 669 560 647 572 q 713 541 690 547 q 751 535 735 535 q 794 533 775 533 q 829 532 814 532 q 860 529 863 532 q 847 522 858 526 q 819 512 835 517 q 788 502 804 507 q 761 494 771 497 q 772 479 758 486 q 806 466 785 472 q 851 456 826 460 q 894 453 875 453 q 926 453 907 453 q 951 458 944 454 q 1033 437 1001 447 q 1107 413 1065 426 l 1106 401 l 951 0 l 1257 0 z "},"G":{"ha":1756,"x_min":315,"x_max":2090,"o":"m 1769 144 q 1691 35 1740 69 q 1561 0 1642 0 l 1106 0 q 1001 35 1025 0 q 1006 144 976 69 l 1106 407 l 1107 413 q 1033 437 1065 426 q 951 458 1001 447 q 926 453 944 454 q 894 453 907 453 q 851 456 875 453 q 806 466 826 460 q 772 479 785 472 q 761 494 758 486 q 792 500 775 496 q 824 510 808 504 q 849 520 839 515 q 860 529 860 525 q 831 532 860 532 q 795 533 815 532 q 751 535 775 533 q 713 541 735 535 q 669 560 690 547 q 628 590 647 572 q 597 633 608 608 q 657 628 621 631 q 724 625 693 625 l 760 629 q 688 658 735 638 q 592 705 640 678 q 503 763 543 732 q 451 822 463 793 l 458 821 q 510 815 482 818 q 585 813 538 813 l 629 813 q 644 814 643 813 q 529 881 579 844 q 440 961 479 917 q 370 1060 400 1006 q 315 1182 340 1115 q 531 1107 417 1143 q 772 1043 646 1071 q 1038 999 899 1015 q 1328 982 1176 982 l 2090 982 l 1944 758 l 1611 758 q 1556 743 1576 758 q 1518 685 1535 728 l 1369 297 q 1362 239 1353 254 q 1406 224 1371 224 l 1439 224 q 1494 238 1474 224 q 1531 296 1514 253 l 1564 382 l 1464 382 l 1610 604 l 1946 604 l 1769 144 z "},"H":{"ha":1772,"x_min":315,"x_max":2107,"o":"m 1731 0 l 2107 982 l 1801 982 l 1656 600 l 1486 600 l 1632 982 l 1326 982 q 1038 999 1176 982 q 772 1043 899 1015 q 531 1107 646 1071 q 315 1182 417 1143 q 370 1060 340 1115 q 440 961 400 1006 q 529 881 479 917 q 644 814 579 844 q 629 813 643 813 l 585 813 q 510 815 538 813 q 458 821 482 818 l 451 822 q 503 763 463 793 q 592 705 543 732 q 688 658 640 678 q 760 629 735 638 l 724 625 q 657 628 693 625 q 597 633 621 631 q 628 590 608 608 q 669 560 647 572 q 713 541 690 547 q 751 535 735 535 q 795 533 775 533 q 831 532 815 532 q 860 529 863 532 q 847 521 858 526 q 822 510 836 515 q 790 501 807 506 q 761 494 774 496 q 772 479 758 486 q 806 466 785 472 q 851 456 826 460 q 894 453 875 453 q 926 453 907 453 q 951 458 944 454 q 1033 437 1001 447 q 1107 413 1065 426 l 1106 407 l 950 0 l 1256 0 l 1401 379 l 1571 379 l 1425 0 l 1731 0 z "},"I":{"ha":1297,"x_min":315,"x_max":1632,"o":"m 1632 982 l 1326 982 q 1038 999 1176 982 q 772 1043 899 1015 q 531 1107 646 1071 q 315 1182 417 1143 q 370 1060 340 1115 q 440 961 400 1006 q 529 881 479 917 q 644 814 579 844 q 629 813 643 813 l 585 813 q 510 815 538 813 q 458 821 482 818 l 451 822 q 503 763 463 793 q 592 705 543 732 q 688 658 640 678 q 760 629 735 638 l 724 625 q 657 628 693 625 q 597 633 621 631 q 628 590 608 608 q 669 560 647 572 q 713 541 690 547 q 751 535 735 535 q 795 533 775 533 q 831 532 815 532 q 860 529 863 532 q 845 520 857 525 q 817 510 833 515 q 786 500 801 504 q 761 494 771 496 q 772 479 758 486 q 806 466 785 472 q 851 456 826 460 q 894 453 875 453 q 926 453 907 453 q 951 458 944 454 q 1033 437 1001 447 q 1107 413 1065 426 l 1106 407 l 950 0 l 1256 0 l 1632 982 z "},"J":{"ha":1299,"x_min":315,"x_max":1633,"o":"m 1633 982 l 1328 982 q 1038 999 1176 982 q 772 1043 899 1015 q 531 1107 646 1071 q 315 1182 417 1143 q 370 1060 340 1115 q 440 961 400 1006 q 529 881 479 917 q 644 814 579 844 q 628 813 643 813 l 585 813 q 510 815 538 813 q 458 821 482 818 l 451 822 q 503 763 463 793 q 592 705 543 732 q 688 658 640 678 q 760 629 735 638 l 724 625 q 657 628 693 625 q 597 633 621 631 q 628 590 608 608 q 669 560 647 572 q 713 541 690 547 q 751 535 735 535 q 794 533 775 533 q 829 532 814 532 q 860 529 863 532 q 847 522 858 526 q 822 511 836 517 q 790 501 807 506 q 761 494 774 497 q 772 479 758 486 q 806 466 785 472 q 851 456 826 460 q 894 453 875 453 q 926 453 907 453 q 951 458 944 454 q 1009 448 986 453 q 1049 439 1032 443 q 1079 430 1065 435 q 1110 419 1093 425 l 1110 414 l 1065 297 q 1028 239 1049 254 q 974 224 1008 224 l 707 224 l 675 0 l 1104 0 q 1234 35 1185 0 q 1313 144 1283 69 l 1633 982 z "},"K":{"ha":1744,"x_min":315,"x_max":2107,"o":"m 1694 493 l 1731 0 l 1425 0 l 1400 378 l 1256 0 l 950 0 l 1106 407 l 1107 413 q 1033 437 1065 426 q 951 458 1001 447 q 926 453 944 454 q 894 453 907 453 q 851 456 875 453 q 806 466 826 460 q 772 479 785 472 q 761 494 758 486 q 789 502 772 497 q 821 513 806 507 q 847 522 836 518 q 860 529 858 526 q 831 532 863 532 q 795 533 815 532 q 751 535 775 533 q 713 541 735 535 q 669 560 690 547 q 628 590 647 572 q 597 633 608 608 q 657 628 621 631 q 724 625 693 625 l 760 629 q 688 658 735 638 q 592 705 640 678 q 503 763 543 732 q 451 822 463 793 l 458 821 q 510 815 482 818 q 585 813 538 813 l 629 813 q 644 814 643 813 q 529 881 579 844 q 440 961 479 917 q 370 1060 400 1006 q 315 1182 340 1115 q 531 1107 417 1143 q 772 1043 646 1071 q 1038 999 899 1015 q 1326 982 1176 982 l 1632 982 l 1488 604 l 1801 982 l 2107 982 l 1694 493 z "},"L":{"ha":1607,"x_min":315,"x_max":1672,"o":"m 1632 982 l 1328 982 q 1038 999 1176 982 q 772 1043 899 1015 q 531 1107 646 1071 q 315 1182 417 1143 q 370 1060 340 1115 q 440 961 400 1006 q 529 881 479 917 q 644 814 579 844 q 629 813 643 813 l 585 813 q 510 815 538 813 q 458 821 482 818 l 451 822 q 503 763 463 793 q 592 705 543 732 q 688 658 640 678 q 760 629 735 638 l 724 625 q 657 628 693 625 q 597 633 621 631 q 628 590 608 608 q 669 560 647 572 q 713 541 690 547 q 751 535 735 535 q 795 533 775 533 q 831 532 815 532 q 860 529 863 532 q 848 522 858 526 q 823 512 838 517 q 792 502 808 507 q 761 494 775 497 q 772 479 758 486 q 806 466 785 472 q 851 456 826 460 q 894 453 875 453 q 926 453 907 453 q 951 458 944 454 q 1033 437 1001 447 q 1107 413 1065 426 l 1106 407 l 950 0 l 1529 0 l 1672 224 l 1342 224 l 1632 982 z "},"M":{"ha":2132,"x_min":315,"x_max":2467,"o":"m 1496 0 l 1422 433 l 1256 0 l 950 0 l 1106 407 l 1107 413 q 1033 437 1065 426 q 951 458 1001 447 q 926 453 944 454 q 894 453 907 453 q 851 456 875 453 q 806 466 826 460 q 772 479 785 472 q 761 494 758 486 q 806 506 779 499 q 846 521 832 514 q 856 526 851 524 q 860 529 860 528 q 853 531 860 531 q 831 532 847 532 q 795 533 815 532 q 751 535 775 533 q 713 541 735 535 q 669 560 690 547 q 628 590 647 572 q 597 633 608 608 q 657 628 621 631 q 724 625 693 625 l 760 629 q 688 658 735 638 q 592 705 640 678 q 503 763 543 732 q 451 822 463 793 l 458 821 q 510 815 482 818 q 585 813 538 813 l 629 813 q 644 814 643 813 q 529 881 579 844 q 440 961 479 917 q 370 1060 400 1006 q 315 1182 340 1115 q 531 1107 417 1143 q 772 1043 646 1071 q 1038 999 899 1015 q 1328 982 1176 982 l 1646 982 l 1725 535 l 2147 982 l 2467 982 l 2090 0 l 1785 0 l 1951 433 l 1544 0 l 1496 0 z "},"N":{"ha":1772,"x_min":315,"x_max":2107,"o":"m 2107 982 l 1801 982 l 1661 615 l 1547 982 l 1326 982 q 1038 999 1176 982 q 772 1043 899 1015 q 531 1107 646 1071 q 315 1182 417 1143 q 370 1060 340 1115 q 440 961 400 1006 q 529 881 479 917 q 644 814 579 844 q 629 813 643 813 l 585 813 q 510 815 538 813 q 458 821 482 818 l 451 822 q 503 763 463 793 q 592 705 543 732 q 688 658 640 678 q 760 629 735 638 l 724 625 q 657 628 693 625 q 597 633 621 631 q 628 590 608 608 q 669 560 647 572 q 713 541 690 547 q 751 535 735 535 q 795 533 775 533 q 831 532 815 532 q 860 529 863 532 q 847 522 858 526 q 822 511 836 517 q 790 501 807 506 q 761 494 774 497 q 772 479 758 486 q 806 466 785 472 q 851 456 826 460 q 894 453 875 453 q 926 453 907 453 q 951 458 944 454 q 1033 437 1001 447 q 1107 413 1065 426 l 1106 407 l 950 0 l 1256 0 l 1396 367 l 1510 0 l 1731 0 l 2107 982 z "},"O":{"ha":1772,"x_min":315,"x_max":2081,"o":"m 1578 0 q 1708 35 1658 0 q 1786 144 1757 69 l 2051 838 q 2058 947 2081 913 q 1954 982 2035 982 l 1328 982 q 1038 999 1176 982 q 772 1043 899 1015 q 531 1107 646 1071 q 315 1182 417 1143 q 370 1060 340 1115 q 440 961 400 1006 q 529 881 479 917 q 644 814 579 844 q 628 813 643 813 l 585 813 q 510 815 538 813 q 458 821 482 818 l 451 822 q 503 763 463 793 q 592 705 543 732 q 688 658 640 678 q 760 629 735 638 l 724 625 q 657 628 693 625 q 597 633 621 631 q 628 590 608 608 q 669 560 647 572 q 713 541 690 547 q 751 535 735 535 q 794 533 775 533 q 829 532 814 532 q 860 529 863 532 q 847 522 858 526 q 821 513 836 518 q 789 502 806 507 q 761 494 772 497 q 772 479 758 486 q 806 466 785 472 q 851 456 826 460 q 894 453 875 453 q 926 453 907 453 q 951 458 944 454 q 1033 437 1001 447 q 1107 413 1065 426 l 1106 407 l 1006 144 q 1001 35 976 69 q 1106 0 1025 0 l 1578 0 m 1518 685 q 1556 743 1535 728 q 1611 758 1576 758 l 1653 758 q 1696 743 1688 758 q 1688 685 1704 728 l 1539 297 q 1502 239 1522 254 q 1447 224 1482 224 l 1406 224 q 1362 239 1371 224 q 1369 297 1353 254 l 1518 685 z "},"P":{"ha":1769,"x_min":315,"x_max":2078,"o":"m 1951 982 l 1328 982 q 1038 999 1176 982 q 772 1043 899 1015 q 531 1107 646 1071 q 315 1182 417 1143 q 370 1060 340 1115 q 440 961 400 1006 q 529 881 479 917 q 644 814 579 844 q 629 813 643 813 l 585 813 q 510 815 538 813 q 458 821 482 818 l 451 822 q 503 763 463 793 q 592 705 543 732 q 688 658 640 678 q 760 629 735 638 l 724 625 q 657 628 693 625 q 597 633 621 631 q 628 590 608 608 q 669 560 647 572 q 713 541 690 547 q 751 535 735 535 q 795 533 775 533 q 831 532 815 532 q 860 529 863 532 q 848 521 858 526 q 823 510 838 515 q 792 501 808 506 q 761 494 775 496 q 772 479 758 486 q 806 466 785 472 q 851 456 826 460 q 894 453 875 453 q 926 453 907 453 q 951 458 944 454 q 1033 437 1001 447 q 1107 413 1065 426 l 1104 396 l 953 0 l 1258 0 l 1385 329 l 1701 329 q 1831 364 1782 329 q 1910 474 1881 399 l 2049 838 q 2055 947 2078 913 q 1951 982 2032 982 m 1471 553 l 1550 758 l 1650 758 q 1693 743 1685 758 q 1685 685 1701 728 l 1663 626 q 1626 568 1646 583 q 1571 553 1606 553 l 1471 553 z "},"Q":{"ha":1831,"x_min":315,"x_max":2069,"o":"m 1106 0 l 1754 0 l 1897 224 l 1806 224 l 2040 838 q 2047 947 2069 913 q 1943 982 2024 982 l 1328 982 q 1038 999 1176 982 q 772 1043 899 1015 q 531 1107 646 1071 q 315 1182 417 1143 q 370 1060 340 1115 q 440 961 400 1006 q 529 881 479 917 q 644 814 579 844 q 629 813 643 813 l 585 813 q 510 815 538 813 q 458 821 482 818 l 451 822 q 503 763 463 793 q 592 705 543 732 q 688 658 640 678 q 760 629 735 638 l 724 625 q 657 628 693 625 q 597 633 621 631 q 628 590 608 608 q 669 560 647 572 q 713 541 690 547 q 751 535 735 535 q 795 533 775 533 q 831 532 815 532 q 860 529 863 532 q 847 522 858 526 q 822 511 836 517 q 790 501 807 506 q 761 494 774 497 q 772 479 758 486 q 806 466 785 472 q 851 456 826 460 q 894 453 875 453 q 926 453 907 453 q 951 458 944 454 q 1033 437 1001 447 q 1107 413 1065 426 l 1106 407 l 1006 144 q 1001 35 976 69 q 1106 0 1025 0 m 1518 685 q 1556 743 1535 728 q 1611 758 1576 758 l 1642 758 q 1685 743 1676 758 q 1676 685 1693 728 l 1528 297 q 1491 239 1511 254 q 1436 224 1471 224 l 1406 224 q 1362 239 1371 224 q 1369 297 1353 254 l 1518 685 z "},"R":{"ha":1768,"x_min":315,"x_max":2076,"o":"m 1950 982 q 2053 947 2031 982 q 2047 838 2076 913 l 1908 474 q 1832 365 1881 401 q 1703 329 1783 329 l 1740 0 l 1433 0 l 1385 332 l 1257 0 l 951 0 l 1106 401 l 1107 413 q 1033 437 1065 426 q 951 458 1001 447 q 926 453 944 454 q 894 453 907 453 q 851 456 875 453 q 806 466 826 460 q 772 479 785 472 q 761 494 758 486 q 790 501 774 496 q 822 510 807 506 q 847 521 836 515 q 860 529 858 526 q 831 532 863 532 q 795 533 815 532 q 751 535 775 533 q 713 541 735 535 q 669 560 690 547 q 628 590 647 572 q 597 633 608 608 q 657 628 621 631 q 724 625 693 625 l 760 629 q 688 658 735 638 q 592 705 640 678 q 503 763 543 732 q 451 822 463 793 l 458 821 q 510 815 482 818 q 585 813 538 813 l 629 813 q 644 814 643 813 q 529 881 579 844 q 440 961 479 917 q 370 1060 400 1006 q 315 1182 340 1115 q 531 1107 417 1143 q 771 1043 644 1071 q 1036 999 897 1015 q 1325 982 1175 982 l 1950 982 m 1469 553 l 1569 553 q 1624 568 1604 553 q 1661 626 1644 583 l 1683 685 q 1692 743 1700 728 q 1649 758 1683 758 l 1549 758 l 1469 553 z "},"S":{"ha":1743,"x_min":315,"x_max":2078,"o":"m 1508 297 l 1513 307 q 1524 360 1526 343 q 1497 381 1521 376 l 1253 381 q 1172 383 1214 381 q 1093 403 1129 386 q 1057 417 1072 410 q 1026 431 1042 424 q 994 446 1011 439 q 951 458 976 453 q 926 453 944 454 q 894 453 907 453 q 851 456 875 453 q 806 466 826 460 q 772 479 785 472 q 761 494 758 486 q 792 503 775 499 q 823 513 808 508 q 848 521 838 517 q 860 529 858 525 q 831 532 863 532 q 795 533 815 532 q 751 535 775 533 q 713 541 735 535 q 669 560 690 547 q 628 590 647 572 q 597 633 608 608 q 657 628 621 631 q 724 625 693 625 l 760 629 q 688 658 735 638 q 592 705 640 678 q 503 763 543 732 q 451 822 463 793 l 458 821 q 510 815 482 818 q 585 811 538 811 l 629 811 q 644 814 642 811 q 528 881 578 844 q 439 961 478 917 q 370 1060 400 1006 q 315 1182 340 1115 q 531 1107 417 1143 q 772 1043 646 1071 q 1038 999 899 1015 q 1328 982 1176 982 l 2078 982 l 1933 758 l 1613 758 q 1557 743 1578 758 q 1519 685 1536 728 l 1517 675 q 1506 632 1506 642 q 1517 610 1506 615 q 1553 604 1529 604 l 1776 604 q 1881 569 1857 604 q 1876 460 1906 535 l 1756 144 q 1676 35 1726 69 q 1544 0 1625 0 l 999 0 l 1029 224 l 1417 224 q 1472 239 1451 224 q 1508 297 1492 254 z "},"T":{"ha":1572,"x_min":315,"x_max":1928,"o":"m 1783 758 l 1614 758 l 1322 0 l 1017 0 l 1171 401 q 1135 410 1150 404 q 1104 422 1119 417 q 1063 433 1081 429 q 1029 441 1046 438 q 994 449 1013 444 q 951 458 976 453 q 926 453 944 454 q 894 453 907 453 q 851 456 875 453 q 806 466 826 460 q 772 479 785 472 q 761 494 758 486 q 789 502 772 497 q 821 513 806 507 q 847 522 836 518 q 860 529 858 526 q 831 532 863 532 q 795 533 815 532 q 751 535 775 533 q 713 541 735 535 q 669 560 690 547 q 628 590 647 572 q 597 633 608 608 q 657 628 621 631 q 724 625 693 625 l 760 629 q 688 658 735 638 q 592 705 640 678 q 503 763 543 732 q 451 822 463 793 l 458 821 q 510 815 482 818 q 585 811 538 811 l 629 811 q 644 814 642 811 q 529 881 579 844 q 440 961 479 917 q 370 1060 400 1006 q 315 1182 340 1115 q 531 1107 417 1143 q 772 1043 646 1071 q 1038 999 899 1015 q 1328 982 1176 982 l 1928 982 l 1783 758 z "},"U":{"ha":1769,"x_min":315,"x_max":2104,"o":"m 1369 297 l 1632 982 l 1328 982 q 1038 999 1176 982 q 772 1043 899 1015 q 531 1107 646 1071 q 315 1182 417 1143 q 370 1060 340 1115 q 440 961 400 1006 q 529 881 479 917 q 644 814 579 844 q 629 811 642 811 l 585 811 q 510 815 538 811 q 458 821 482 818 l 451 822 q 503 763 463 793 q 592 705 543 732 q 688 658 640 678 q 760 629 735 638 l 724 625 q 657 628 693 625 q 597 633 621 631 q 628 590 608 608 q 669 560 647 572 q 713 541 690 547 q 751 535 735 535 q 795 533 775 533 q 831 532 815 532 q 860 529 863 532 q 848 522 858 526 q 823 512 838 517 q 792 502 808 507 q 761 494 775 497 q 772 479 758 486 q 806 466 785 472 q 851 456 826 460 q 894 453 875 453 q 926 453 907 453 q 951 458 944 454 q 1033 437 1001 447 q 1107 413 1065 426 l 1106 407 l 1006 144 q 1001 35 976 69 q 1106 0 1025 0 l 1575 0 q 1705 35 1656 0 q 1783 144 1754 69 l 2104 982 l 1799 982 l 1536 297 q 1499 239 1519 254 q 1444 224 1479 224 l 1406 224 q 1362 239 1371 224 q 1369 297 1353 254 z "},"V":{"ha":1708,"x_min":315,"x_max":2064,"o":"m 315 1182 q 531 1107 417 1143 q 772 1043 646 1071 q 1038 999 899 1015 q 1328 982 1176 982 l 1497 982 l 1376 326 l 1760 982 l 2064 982 l 1465 0 l 1042 0 l 1107 413 q 1033 437 1065 426 q 951 458 1001 447 q 926 453 944 454 q 894 453 907 453 q 851 456 875 453 q 806 466 826 460 q 772 479 785 472 q 761 494 758 486 q 790 501 774 497 q 822 511 807 506 q 847 522 836 517 q 860 529 858 526 q 831 532 863 532 q 795 533 815 532 q 751 535 775 533 q 713 541 735 535 q 669 560 690 547 q 628 590 647 572 q 597 633 608 608 q 657 628 621 631 q 724 625 693 625 l 760 629 q 688 658 735 638 q 592 705 640 678 q 503 763 543 732 q 451 822 463 793 l 458 821 q 510 815 482 818 q 585 811 538 811 l 629 811 q 644 814 642 811 q 529 881 579 844 q 440 961 479 917 q 370 1060 400 1006 q 315 1182 340 1115 z "},"W":{"ha":2100,"x_min":315,"x_max":2456,"o":"m 315 1182 q 526 1108 415 1144 q 759 1044 636 1072 q 1016 999 882 1017 q 1297 982 1150 982 l 1499 982 l 1425 540 l 1688 982 l 1963 982 l 1885 540 l 2150 982 l 2456 982 l 1858 0 l 1531 0 l 1574 321 l 1371 0 l 1040 0 l 1104 413 q 1032 437 1064 426 q 951 458 1000 447 q 926 453 944 454 q 894 453 907 453 q 851 456 875 453 q 806 466 826 460 q 772 479 785 472 q 761 494 758 486 q 790 501 774 497 q 822 511 807 506 q 847 522 836 517 q 860 529 858 526 q 831 532 863 532 q 795 533 815 532 q 751 535 775 533 q 713 541 735 535 q 669 560 690 547 q 628 590 647 572 q 597 633 608 608 q 657 628 621 631 q 724 625 693 625 l 760 629 q 688 658 735 638 q 592 705 640 678 q 503 763 543 732 q 451 822 463 793 l 458 821 q 510 815 482 818 q 585 811 538 811 l 629 811 q 644 814 642 811 q 529 881 579 844 q 440 961 479 917 q 370 1060 400 1006 q 315 1182 340 1115 z "},"X":{"ha":1740,"x_min":315,"x_max":2096,"o":"m 1414 0 l 1403 199 l 1240 0 l 935 0 l 1263 390 q 1185 394 1224 392 q 1107 413 1146 396 q 1033 437 1065 426 q 951 458 1001 447 q 926 453 944 454 q 894 453 907 453 q 851 456 875 453 q 806 466 826 460 q 772 479 785 472 q 761 494 758 486 q 790 501 774 496 q 822 510 807 506 q 847 521 836 515 q 860 529 858 526 q 831 532 863 532 q 795 533 815 532 q 751 535 775 533 q 713 541 735 535 q 669 560 690 547 q 628 590 647 572 q 597 633 608 608 q 657 628 621 631 q 724 625 693 625 l 760 629 q 688 658 735 638 q 592 705 640 678 q 503 763 543 732 q 451 822 463 793 l 458 821 q 510 815 482 818 q 585 811 538 811 l 629 811 q 644 814 642 811 q 529 881 579 844 q 440 961 479 917 q 370 1060 400 1006 q 315 1182 340 1115 q 531 1107 417 1143 q 772 1043 646 1071 q 1038 999 899 1015 q 1328 982 1176 982 l 1617 982 l 1626 782 l 1790 982 l 2096 982 l 1683 493 l 1719 0 l 1414 0 z "},"Y":{"ha":1753,"x_min":315,"x_max":2086,"o":"m 1765 144 q 1685 35 1736 69 q 1554 0 1635 0 l 999 0 l 1029 224 l 1426 224 q 1481 239 1461 224 q 1518 297 1501 254 l 1550 381 l 1253 381 q 1220 383 1239 381 q 1183 390 1201 386 q 1148 400 1164 394 q 1122 413 1132 406 q 1042 435 1082 424 q 951 458 1001 447 q 926 453 944 454 q 894 453 907 453 q 851 456 875 453 q 806 466 826 460 q 772 479 785 472 q 761 494 758 486 q 790 501 774 497 q 822 511 807 506 q 847 522 836 517 q 860 529 858 526 q 831 532 863 532 q 795 533 815 532 q 751 535 775 533 q 713 541 735 535 q 669 560 690 547 q 628 590 647 572 q 597 633 608 608 q 657 628 621 631 q 724 625 693 625 l 760 629 q 688 658 735 638 q 592 705 640 678 q 503 763 543 732 q 451 822 463 793 l 458 821 q 510 815 482 818 q 585 811 538 811 l 629 811 q 644 814 642 811 q 529 881 579 844 q 440 961 479 917 q 370 1060 400 1006 q 315 1182 340 1115 q 531 1107 417 1143 q 772 1043 646 1071 q 1038 999 899 1015 q 1328 982 1176 982 l 1633 982 l 1517 675 q 1509 618 1500 632 q 1553 604 1518 604 l 1636 604 l 1781 982 l 2086 982 l 1765 144 z "},"Z":{"ha":1624,"x_min":315,"x_max":1958,"o":"m 881 0 l 965 222 l 1190 439 q 1120 444 1157 440 q 1050 451 1083 447 q 990 457 1017 454 q 953 460 964 460 q 926 454 946 456 q 894 453 907 453 q 851 456 875 453 q 806 466 826 460 q 772 479 785 472 q 761 494 758 486 q 792 502 775 497 q 823 512 808 507 q 848 522 838 517 q 860 529 858 526 q 831 532 863 532 q 795 533 815 532 q 751 535 775 533 q 713 541 735 535 q 669 560 690 547 q 628 590 647 572 q 597 633 608 608 q 657 628 621 631 q 724 625 693 625 l 760 629 q 688 658 735 638 q 592 705 640 678 q 503 763 543 732 q 451 822 463 793 l 458 821 q 510 815 482 818 q 585 811 538 811 l 629 811 q 644 814 642 811 q 529 881 579 844 q 440 961 479 917 q 370 1060 400 1006 q 315 1182 340 1115 q 528 1107 415 1143 q 767 1043 642 1071 q 1031 999 893 1015 q 1318 982 1168 982 l 1958 982 l 1874 758 l 1311 224 l 1668 224 l 1522 0 l 881 0 z "},"[":{"ha":578,"x_min":42,"x_max":933,"o":"m 497 0 l 42 0 l 418 982 l 933 982 l 789 758 l 639 758 l 433 224 l 642 224 l 497 0 z "},"\\":{"ha":569,"x_min":250,"x_max":696,"o":"m 549 0 l 696 982 l 397 982 l 250 0 l 549 0 z "},"]":{"ha":578,"x_min":81,"x_max":913,"o":"m 81 0 l 536 0 l 913 982 l 397 982 l 372 758 l 522 758 l 317 224 l 108 224 l 81 0 z "},"^":{"ha":910,"x_min":21,"x_max":1043,"o":"m 619 982 l 21 0 l 322 0 l 704 656 l 585 0 l 889 0 l 1043 982 l 619 982 z "},"_":{"ha":739,"x_min":42,"x_max":754,"o":"m 42 0 l 697 0 l 754 150 l 99 150 l 42 0 z "},"`":{"ha":292,"x_min":436,"x_max":649,"o":"m 436 1246 l 456 1043 l 636 1043 l 649 1246 l 436 1246 z "},"a":{"ha":965,"x_min":21,"x_max":1053,"o":"m 1053 982 l 944 0 l 644 0 l 726 665 l 456 224 l 622 224 l 478 0 l 21 0 l 626 982 l 1053 982 z "},"b":{"ha":897,"x_min":81,"x_max":1206,"o":"m 703 0 q 833 35 783 0 q 911 144 882 69 l 1000 378 q 1004 406 1006 390 q 999 438 1003 422 q 988 467 994 453 q 978 488 982 481 q 1006 509 989 496 q 1038 538 1022 522 q 1067 570 1054 554 q 1085 599 1081 586 l 1176 838 q 1183 947 1206 913 q 1079 982 1160 982 l 454 982 l 313 758 l 372 758 l 81 0 l 703 0 m 717 600 l 617 600 l 678 758 l 778 758 q 821 743 813 758 q 813 685 829 728 l 808 674 q 772 615 792 631 q 717 600 751 600 m 532 379 l 632 379 q 675 364 667 379 q 667 306 683 349 l 664 297 q 627 239 647 254 q 572 224 607 224 l 472 224 l 532 379 z "},"c":{"ha":840,"x_min":68,"x_max":1149,"o":"m 610 685 q 647 743 626 728 q 703 758 668 758 l 721 758 q 764 744 756 758 q 757 686 772 729 l 739 639 l 1044 639 l 1119 838 q 1126 947 1149 913 q 1022 982 1103 982 l 574 982 q 442 947 493 982 q 363 838 392 913 l 97 144 q 92 35 68 69 q 197 0 117 0 l 743 0 l 885 224 l 497 224 q 453 239 463 224 q 461 297 444 254 l 610 685 z "},"d":{"ha":900,"x_min":81,"x_max":1208,"o":"m 454 982 l 313 758 l 372 758 l 81 0 l 706 0 q 835 35 786 0 q 914 144 885 69 l 1179 838 q 1185 947 1208 913 q 1082 982 1163 982 l 454 982 m 472 224 l 678 758 l 781 758 q 824 743 815 758 q 815 685 832 728 l 667 297 q 630 239 650 254 q 575 224 610 224 l 472 224 z "},"e":{"ha":763,"x_min":42,"x_max":1118,"o":"m 682 0 l 826 224 l 433 224 l 493 379 l 765 379 l 908 600 l 578 600 l 639 758 l 974 758 l 1118 982 l 418 982 l 42 0 l 682 0 z "},"f":{"ha":763,"x_min":42,"x_max":1118,"o":"m 347 0 l 493 379 l 765 379 l 908 600 l 578 600 l 639 758 l 974 758 l 1118 982 l 418 982 l 42 0 l 347 0 z "},"g":{"ha":847,"x_min":68,"x_max":1182,"o":"m 1038 604 l 861 144 q 783 35 832 69 q 653 0 733 0 l 197 0 q 92 35 117 0 q 97 144 68 69 l 363 838 q 442 947 392 913 q 574 982 493 982 l 1182 982 l 1036 758 l 703 758 q 647 743 668 758 q 610 685 626 728 l 461 297 q 453 239 444 254 q 497 224 463 224 l 531 224 q 585 238 565 224 q 622 296 606 253 l 656 382 l 556 382 l 701 604 l 1038 604 z "},"h":{"ha":864,"x_min":42,"x_max":1199,"o":"m 822 0 l 1199 982 l 893 982 l 747 600 l 578 600 l 724 982 l 418 982 l 42 0 l 347 0 l 493 379 l 663 379 l 517 0 l 822 0 z "},"i":{"ha":389,"x_min":42,"x_max":724,"o":"m 724 982 l 418 982 l 42 0 l 347 0 l 724 982 z "},"j":{"ha":699,"x_min":78,"x_max":1033,"o":"m 78 0 l 504 0 q 634 35 585 0 q 713 144 683 69 l 1033 982 l 728 982 l 465 297 q 428 239 449 254 q 374 224 408 224 l 107 224 l 78 0 z "},"k":{"ha":843,"x_min":42,"x_max":1199,"o":"m 822 0 l 786 493 l 1199 982 l 893 982 l 579 604 l 724 982 l 418 982 l 42 0 l 347 0 l 492 378 l 517 0 l 822 0 z "},"l":{"ha":699,"x_min":42,"x_max":764,"o":"m 724 982 l 418 982 l 42 0 l 621 0 l 764 224 l 433 224 l 724 982 z "},"m":{"ha":1224,"x_min":42,"x_max":1558,"o":"m 636 0 l 588 0 l 514 433 l 347 0 l 42 0 l 418 982 l 738 982 l 817 535 l 1239 982 l 1558 982 l 1182 0 l 876 0 l 1043 433 l 636 0 z "},"n":{"ha":864,"x_min":42,"x_max":1199,"o":"m 822 0 l 601 0 l 488 367 l 347 0 l 42 0 l 418 982 l 639 982 l 753 615 l 893 982 l 1199 982 l 822 0 z "},"o":{"ha":864,"x_min":68,"x_max":1172,"o":"m 197 0 q 92 35 117 0 q 97 144 68 69 l 363 838 q 442 947 392 913 q 574 982 493 982 l 1046 982 q 1149 947 1126 982 q 1143 838 1172 913 l 878 144 q 799 35 849 69 q 669 0 750 0 l 197 0 m 461 297 q 453 239 444 254 q 497 224 463 224 l 539 224 q 594 239 574 224 q 631 297 614 254 l 779 685 q 788 743 796 728 q 744 758 779 758 l 703 758 q 647 743 668 758 q 610 685 626 728 l 461 297 z "},"p":{"ha":897,"x_min":81,"x_max":1206,"o":"m 1079 982 l 454 982 l 313 758 l 372 758 l 81 0 l 386 0 l 513 329 l 829 329 q 959 364 910 329 q 1038 474 1008 399 l 1176 838 q 1183 947 1206 913 q 1079 982 1160 982 m 599 553 l 678 758 l 778 758 q 821 743 813 758 q 813 685 829 728 l 790 626 q 753 568 774 583 q 699 553 733 553 l 599 553 z "},"q":{"ha":922,"x_min":68,"x_max":1161,"o":"m 197 0 l 846 0 l 989 224 l 897 224 l 1132 838 q 1138 947 1161 913 q 1035 982 1115 982 l 574 982 q 442 947 493 982 q 363 838 392 913 l 97 144 q 92 35 68 69 q 197 0 117 0 m 610 685 q 647 743 626 728 q 703 758 668 758 l 733 758 q 776 743 768 758 q 768 685 785 728 l 619 297 q 583 239 603 254 q 528 224 563 224 l 497 224 q 453 239 463 224 q 461 297 444 254 l 610 685 z "},"r":{"ha":897,"x_min":81,"x_max":1206,"o":"m 678 758 l 599 553 l 699 553 q 753 568 733 553 q 790 626 774 583 l 813 685 q 821 743 829 728 q 778 758 813 758 l 678 758 m 454 982 l 1079 982 q 1183 947 1160 982 q 1176 838 1206 913 l 1038 474 q 961 365 1010 401 q 832 329 913 329 l 869 0 l 563 0 l 514 332 l 386 0 l 81 0 l 372 758 l 313 758 l 454 982 z "},"s":{"ha":849,"x_min":97,"x_max":1175,"o":"m 703 758 q 651 740 671 758 q 619 686 632 721 l 615 675 q 604 632 604 642 q 616 610 604 615 q 651 604 628 604 l 875 604 q 980 569 956 604 q 975 460 1004 535 l 854 144 q 774 35 825 69 q 643 0 724 0 l 97 0 l 128 224 l 515 224 q 570 239 550 224 q 607 297 590 254 l 611 307 q 622 360 625 343 q 596 381 619 376 l 351 381 q 247 415 271 381 q 251 525 222 450 l 372 839 q 544 982 421 967 l 1175 982 l 1031 758 l 703 758 z "},"t":{"ha":803,"x_min":249,"x_max":1158,"o":"m 1158 982 l 1014 758 l 846 758 l 554 0 l 249 0 l 540 758 l 313 758 l 458 982 l 1158 982 z "},"u":{"ha":861,"x_min":68,"x_max":1196,"o":"m 461 297 l 724 982 l 418 982 l 97 144 q 92 35 68 69 q 197 0 117 0 l 667 0 q 797 35 747 0 q 875 144 846 69 l 1196 982 l 890 982 l 628 297 q 591 239 611 254 q 536 224 571 224 l 497 224 q 453 239 463 224 q 461 297 444 254 z "},"v":{"ha":910,"x_min":243,"x_max":1265,"o":"m 243 0 l 397 982 l 697 982 l 578 326 l 963 982 l 1265 982 l 667 0 l 243 0 z "},"w":{"ha":1303,"x_min":243,"x_max":1658,"o":"m 733 0 l 776 321 l 574 0 l 243 0 l 397 982 l 700 982 l 628 540 l 890 982 l 1165 982 l 1088 540 l 1353 982 l 1658 982 l 1061 0 l 733 0 z "},"x":{"ha":826,"x_min":21,"x_max":1182,"o":"m 806 0 l 500 0 l 489 199 l 326 0 l 21 0 l 435 493 l 397 982 l 703 982 l 713 782 l 876 982 l 1182 982 l 769 493 l 806 0 z "},"y":{"ha":844,"x_min":90,"x_max":1178,"o":"m 1178 982 l 857 144 q 777 35 828 69 q 646 0 726 0 l 90 0 l 121 224 l 518 224 q 573 239 553 224 q 610 297 593 254 l 642 381 l 344 381 q 240 415 264 381 q 244 525 215 450 l 419 982 l 725 982 l 608 675 q 601 618 592 632 q 644 604 610 604 l 728 604 l 872 982 l 1178 982 z "},"z":{"ha":785,"x_min":42,"x_max":1119,"o":"m 42 0 l 683 0 l 829 224 l 467 224 l 1035 758 l 1119 982 l 479 982 l 333 758 l 696 758 l 126 222 l 42 0 z "},"{":{"ha":908,"x_min":315,"x_max":1418,"o":"m 1418 982 q 1113 999 1267 982 q 817 1043 960 1015 q 545 1107 674 1071 q 315 1182 417 1143 q 370 1060 340 1115 q 440 961 400 1006 q 529 881 479 917 q 644 814 579 844 q 629 811 642 811 l 585 811 q 510 815 538 811 q 458 821 482 818 l 451 822 q 503 763 463 793 q 592 705 543 732 q 688 658 640 678 q 760 629 735 638 l 724 625 q 657 628 693 625 q 597 633 621 631 q 628 590 608 608 q 669 560 647 572 q 713 541 690 547 q 751 535 735 535 q 795 533 775 533 q 831 532 815 532 q 860 529 863 532 q 848 522 858 526 q 823 513 838 518 q 792 503 808 508 q 761 494 775 499 q 772 479 758 486 q 806 466 785 472 q 851 456 826 460 q 894 453 875 453 q 926 453 907 453 q 951 458 944 454 q 990 447 976 453 q 1013 436 1003 442 q 1033 425 1022 431 q 1064 413 1043 419 l 1193 396 l 1418 982 z "},"|":{"ha":389,"x_min":-14,"x_max":779,"o":"m 779 1126 l 474 1126 l -14 -144 l 292 -144 l 779 1126 z "},"}":{"ha":908,"x_min":18,"x_max":1501,"o":"m 243 982 q 560 999 394 982 q 892 1043 726 1015 q 1213 1107 1057 1071 q 1501 1182 1369 1143 q 1353 1060 1425 1115 q 1207 961 1281 1006 q 1056 881 1133 917 q 889 814 978 844 q 904 811 892 811 l 949 811 q 1026 815 996 811 q 1081 821 1056 818 l 1088 822 q 991 763 1054 793 q 858 705 928 732 q 726 658 789 678 q 632 629 664 638 l 665 625 q 733 628 696 625 q 797 633 771 631 q 735 590 768 608 q 671 560 703 572 q 612 541 639 547 q 568 535 585 535 q 522 533 543 533 q 486 532 501 532 q 454 529 457 532 q 460 522 453 526 q 479 513 468 518 q 503 502 490 507 q 528 494 517 497 q 505 479 524 486 q 461 466 486 472 q 409 456 436 460 q 361 453 382 453 q 331 453 349 453 q 310 458 313 454 q 262 447 279 453 q 231 436 244 442 q 203 425 218 431 q 161 413 188 419 l 18 396 l 243 982 z "},"~":{"ha":704,"x_min":179,"x_max":900,"o":"m 729 378 l 900 600 l 700 600 l 610 482 l 611 600 l 350 600 l 179 378 l 379 378 l 468 494 l 468 378 l 729 378 z "},"":{"ha":308,"x_min":0,"x_max":0,"o":""},"€":{"ha":968,"x_min":113,"x_max":1276,"o":"m 601 297 l 750 685 q 788 743 767 728 q 843 758 808 758 l 849 758 q 892 744 883 758 q 885 686 900 729 l 867 639 l 1172 639 l 1247 838 q 1253 947 1276 913 q 1150 982 1231 982 l 714 982 q 583 947 633 982 q 503 838 532 913 l 465 739 l 365 739 l 221 519 l 382 519 l 358 458 l 258 458 l 113 239 l 274 239 l 238 144 q 233 35 208 69 q 338 0 257 0 l 871 0 l 1013 224 l 638 224 q 594 239 603 224 q 601 297 585 254 z "},"‚":{"ha":307,"x_min":42,"x_max":351,"o":"m 128 224 l 42 0 l 119 0 l 63 -147 l 265 0 l 351 224 l 128 224 z "},"ƒ":{"ha":864,"x_min":42,"x_max":1199,"o":"m 822 0 l 1199 982 l 893 982 l 753 615 l 699 899 q 690 923 696 908 q 676 951 683 938 q 659 973 668 964 q 642 982 650 982 l 418 982 l 42 0 l 347 0 l 488 367 l 543 82 q 550 57 544 71 q 564 31 556 43 q 581 9 572 18 q 599 0 590 0 l 822 0 z "},"„":{"ha":586,"x_min":42,"x_max":631,"o":"m 128 224 l 42 0 l 119 0 l 63 -147 l 265 0 l 351 224 l 128 224 m 407 224 l 321 0 l 399 0 l 342 -147 l 544 0 l 631 224 l 407 224 z "},"…":{"ha":864,"x_min":42,"x_max":908,"o":"m 407 224 l 321 0 l 544 0 l 631 224 l 407 224 m 685 224 l 599 0 l 822 0 l 908 224 l 685 224 m 128 224 l 42 0 l 265 0 l 351 224 l 128 224 z "},"†":{"ha":675,"x_min":185,"x_max":924,"o":"m 924 739 l 774 739 l 867 982 l 561 982 l 468 739 l 379 739 l 235 519 l 385 519 l 185 0 l 490 0 l 690 519 l 781 519 l 924 739 z "},"‡":{"ha":675,"x_min":126,"x_max":924,"o":"m 924 739 l 774 739 l 867 982 l 561 982 l 468 739 l 379 739 l 235 519 l 385 519 l 361 458 l 272 458 l 126 239 l 276 239 l 185 0 l 490 0 l 582 239 l 672 239 l 817 458 l 667 458 l 690 519 l 781 519 l 924 739 z "},"ˆ":{"ha":572,"x_min":442,"x_max":931,"o":"m 604 1246 l 442 1043 l 642 1043 l 728 1151 l 731 1043 l 931 1043 l 924 1246 l 604 1246 z "},"‰":{"ha":1478,"x_min":246,"x_max":1625,"o":"m 317 492 l 536 492 q 600 506 578 492 l 283 0 l 571 0 l 801 368 l 692 82 q 688 19 675 39 q 746 0 700 0 l 965 0 q 1068 56 1035 0 q 1132 0 1058 0 l 1351 0 q 1468 82 1436 0 l 1593 408 q 1540 490 1625 490 l 1321 490 q 1214 433 1246 490 q 1154 490 1225 490 l 935 490 q 868 475 918 490 l 1185 982 l 897 982 l 668 614 l 778 900 q 724 982 810 982 l 504 982 q 431 963 458 982 q 388 900 403 943 l 263 574 q 258 511 246 531 q 317 492 271 492 m 889 154 l 958 336 q 982 357 967 357 l 1001 357 q 1008 336 1017 357 l 939 154 q 915 133 931 133 l 896 133 q 889 154 881 133 m 458 646 l 529 828 q 553 849 538 849 l 572 849 q 579 828 588 849 l 508 646 q 486 625 501 625 l 467 625 q 458 646 451 625 m 1275 154 l 1344 336 q 1368 357 1353 357 l 1388 357 q 1394 336 1403 357 l 1325 154 q 1301 133 1317 133 l 1282 133 q 1275 154 1267 133 z "},"Š":{"ha":821,"x_min":-621,"x_max":1129,"o":"m 586 297 q 549 239 569 254 q 494 224 529 224 l 100 224 l 69 0 l 622 0 q 753 35 703 0 q 833 144 804 69 l 954 460 q 959 569 983 535 q 854 604 935 604 l 624 604 q 580 618 589 604 q 588 675 571 632 l 590 685 q 628 743 607 728 q 683 758 649 758 l 701 758 q 744 744 736 758 q 738 686 753 729 l 1043 686 l 1100 838 q 1106 947 1129 913 q 1003 982 1083 982 l 392 982 q 101 999 240 982 q -164 1043 -37 1015 q -405 1107 -290 1071 q -621 1182 -519 1143 q -566 1060 -596 1115 q -497 961 -536 1006 q -407 881 -457 917 q -292 814 -357 844 q -307 813 -293 813 l -351 813 q -426 815 -399 813 q -478 821 -454 818 l -485 822 q -433 763 -474 793 q -344 705 -393 732 q -249 658 -296 678 q -176 629 -201 638 l -212 625 q -279 628 -243 625 q -339 633 -315 631 q -308 590 -328 608 q -267 560 -289 572 q -224 541 -246 547 q -185 535 -201 535 q -141 533 -161 533 q -106 532 -121 532 q -76 529 -74 532 q -90 522 -78 526 q -117 513 -101 518 q -149 503 -132 508 q -175 494 -165 499 q -165 479 -178 486 q -131 466 -151 472 q -85 456 -110 460 q -42 453 -61 453 q -10 453 -29 453 q 15 458 8 454 q 58 447 40 453 q 92 436 76 442 q 124 425 108 431 q 160 413 139 419 q 274 385 231 389 q 324 381 317 381 l 575 381 q 601 360 599 376 q 590 307 604 343 l 586 297 m 956 1043 l 1118 1246 l 918 1246 l 832 1138 l 829 1246 l 629 1246 l 636 1043 l 956 1043 z "},"‹":{"ha":286,"x_min":168,"x_max":526,"o":"m 168 331 l 339 246 l 415 446 l 325 490 l 450 535 l 526 735 l 292 650 l 168 331 z "},"Œ":{"ha":2132,"x_min":322,"x_max":2488,"o":"m 2051 0 l 2196 224 l 1803 224 l 1863 379 l 2135 379 l 2278 600 l 1947 600 l 2008 758 l 2343 758 l 2488 982 l 1335 982 q 1044 999 1183 982 q 779 1043 906 1015 q 538 1107 653 1071 q 322 1182 424 1143 q 377 1060 347 1115 q 447 961 407 1006 q 536 881 486 917 q 651 814 586 844 q 636 813 650 813 l 592 813 q 517 815 544 813 q 465 821 489 818 l 458 822 q 510 763 469 793 q 599 705 550 732 q 694 658 647 678 q 767 629 742 638 l 731 625 q 664 628 700 625 q 604 633 628 631 q 635 590 615 608 q 676 560 654 572 q 719 541 697 547 q 758 535 742 535 q 802 533 782 533 q 838 532 822 532 q 867 529 869 532 q 853 522 865 526 q 826 513 842 518 q 794 503 811 508 q 768 494 778 499 q 778 479 765 486 q 813 466 792 472 q 858 456 833 460 q 901 453 882 453 q 933 453 914 453 q 958 458 951 454 q 1040 437 1008 447 q 1114 413 1072 426 l 1113 407 l 1013 144 q 1008 35 983 69 q 1113 0 1032 0 l 2051 0 m 1376 297 l 1525 685 q 1563 743 1542 728 q 1618 758 1583 758 l 1639 758 q 1681 746 1671 758 q 1679 697 1690 733 l 1497 224 l 1413 224 q 1369 239 1378 224 q 1376 297 1360 254 z "},"Ž":{"ha":1624,"x_min":315,"x_max":1958,"o":"m 1471 1043 l 1464 1246 l 1664 1246 l 1667 1138 l 1753 1246 l 1953 1246 l 1790 1043 l 1471 1043 m 881 0 l 965 222 l 1190 439 l 1117 439 q 1071 440 1090 439 q 1033 444 1051 442 q 996 451 1015 447 q 951 458 976 454 q 926 453 944 454 q 894 453 907 453 q 851 456 875 453 q 806 466 826 460 q 772 479 785 472 q 761 494 758 486 q 788 503 771 499 q 819 513 804 508 q 847 522 835 518 q 860 529 858 526 q 831 532 863 532 q 795 533 815 532 q 751 535 775 533 q 713 541 735 535 q 669 560 690 547 q 628 590 647 572 q 597 633 608 608 q 657 628 621 631 q 724 625 693 625 l 760 629 q 688 658 735 638 q 592 705 640 678 q 503 763 543 732 q 451 822 463 793 l 458 821 q 510 815 482 818 q 585 813 538 813 l 629 813 q 644 814 643 813 q 529 881 579 844 q 440 961 479 917 q 370 1060 400 1006 q 315 1182 340 1115 q 528 1107 415 1143 q 767 1043 642 1071 q 1031 999 893 1015 q 1318 982 1168 982 l 1958 982 l 1874 758 l 1310 224 l 1668 224 l 1522 0 l 881 0 z "},"‘":{"ha":307,"x_min":276,"x_max":586,"o":"m 500 611 l 586 835 l 508 835 l 564 982 l 363 835 l 276 611 l 500 611 z "},"’":{"ha":307,"x_min":333,"x_max":642,"o":"m 418 982 l 333 758 l 411 758 l 354 611 l 557 758 l 642 982 l 418 982 z "},"“":{"ha":586,"x_min":276,"x_max":865,"o":"m 779 611 l 865 835 l 788 835 l 843 982 l 642 835 l 556 611 l 779 611 m 500 611 l 586 835 l 508 835 l 564 982 l 363 835 l 276 611 l 500 611 z "},"”":{"ha":586,"x_min":333,"x_max":921,"o":"m 418 982 l 333 758 l 411 758 l 354 611 l 557 758 l 642 982 l 418 982 m 697 982 l 613 758 l 690 758 l 633 611 l 836 758 l 921 982 l 697 982 z "},"•":{"ha":864,"x_min":68,"x_max":1172,"o":"m 197 0 q 92 35 117 0 q 97 144 68 69 l 363 838 q 442 947 392 913 q 574 982 493 982 l 1046 982 q 1149 947 1126 982 q 1143 838 1172 913 l 878 144 q 799 35 849 69 q 669 0 750 0 l 197 0 z "},"–":{"ha":531,"x_min":179,"x_max":726,"o":"m 726 600 l 581 378 l 179 378 l 326 600 l 726 600 z "},"—":{"ha":626,"x_min":179,"x_max":822,"o":"m 676 378 l 822 600 l 326 600 l 179 378 l 676 378 z "},"˜":{"ha":633,"x_min":442,"x_max":1154,"o":"m 992 1043 l 1154 1246 l 954 1246 l 868 1138 l 865 1246 l 604 1246 l 442 1043 l 642 1043 l 726 1150 l 731 1043 l 992 1043 z "},"™":{"ha":478,"x_min":422,"x_max":836,"o":"m 561 829 l 583 829 l 638 968 l 650 979 l 647 842 q 649 831 647 832 q 657 829 651 829 q 669 831 667 829 q 679 842 672 832 l 782 982 l 788 968 l 733 829 l 754 829 l 836 1043 l 829 1043 q 783 1027 806 1043 q 726 964 761 1011 q 703 925 714 940 q 681 892 693 910 q 683 925 682 907 q 686 971 685 943 l 689 982 q 678 1024 688 1004 q 661 1043 669 1043 l 661 1042 q 650 1039 661 1039 q 640 1035 646 1039 l 561 829 m 425 829 l 456 829 l 525 1008 l 596 1008 l 608 1043 l 435 1043 l 422 1008 l 494 1008 l 425 829 z "},"š":{"ha":849,"x_min":97,"x_max":1157,"o":"m 983 1043 l 1146 1246 l 946 1246 l 860 1138 l 857 1246 l 657 1246 l 664 1043 l 983 1043 m 614 297 q 577 239 597 254 q 522 224 557 224 l 128 224 l 97 0 l 650 0 q 781 35 731 0 q 861 144 832 69 l 982 460 q 987 569 1011 535 q 882 604 963 604 l 651 604 q 608 618 617 604 q 615 675 599 632 l 618 685 q 656 743 635 728 q 711 758 676 758 l 729 758 q 772 744 764 758 q 765 686 781 729 l 1071 686 l 1128 838 q 1134 947 1157 913 q 1031 982 1111 982 l 582 982 q 451 947 501 982 q 371 838 400 913 l 251 525 q 247 415 222 450 q 351 381 271 381 l 603 381 q 629 360 626 376 q 618 307 632 343 l 614 297 z "},"›":{"ha":286,"x_min":136,"x_max":494,"o":"m 371 331 l 136 246 l 213 446 l 339 490 l 247 535 l 324 735 l 494 650 l 371 331 z "},"œ":{"ha":1217,"x_min":68,"x_max":1572,"o":"m 1136 0 l 1281 224 l 888 224 l 947 379 l 1219 379 l 1363 600 l 1032 600 l 1093 758 l 1428 758 l 1572 982 l 574 982 q 442 947 493 982 q 363 838 392 913 l 97 144 q 92 35 68 69 q 197 0 117 0 l 1136 0 m 461 297 l 610 685 q 647 743 626 728 q 703 758 668 758 l 724 758 q 765 746 756 758 q 764 697 775 733 l 582 224 l 497 224 q 453 239 463 224 q 461 297 444 254 z "},"ž":{"ha":785,"x_min":42,"x_max":1119,"o":"m 951 1043 l 1114 1246 l 914 1246 l 828 1138 l 825 1246 l 625 1246 l 632 1043 l 951 1043 m 42 0 l 683 0 l 829 224 l 467 224 l 1035 758 l 1119 982 l 479 982 l 333 758 l 696 758 l 126 222 l 42 0 z "},"Ÿ":{"ha":1751,"x_min":315,"x_max":2086,"o":"m 2053 1246 l 1975 1043 l 1765 1043 l 1843 1246 l 2053 1246 m 1774 1246 l 1696 1043 l 1486 1043 l 1564 1246 l 1774 1246 m 1765 144 q 1685 35 1736 69 q 1554 0 1635 0 l 999 0 l 1029 224 l 1426 224 q 1481 239 1461 224 q 1518 297 1501 254 l 1550 381 l 1253 381 q 1220 383 1239 381 q 1183 390 1201 386 q 1148 400 1164 394 q 1122 413 1132 406 q 1042 435 1082 424 q 951 458 1001 447 q 926 453 944 454 q 894 453 907 453 q 851 456 875 453 q 806 466 826 460 q 772 479 785 472 q 761 494 758 486 q 788 503 771 499 q 819 513 804 508 q 847 522 835 518 q 860 529 858 526 q 831 532 863 532 q 795 533 815 532 q 751 535 775 533 q 713 541 735 535 q 669 560 690 547 q 628 590 647 572 q 597 633 608 608 q 657 628 621 631 q 724 625 693 625 l 760 629 q 688 658 735 638 q 592 705 640 678 q 503 763 543 732 q 451 822 463 793 l 458 821 q 510 815 482 818 q 585 813 538 813 l 629 813 q 644 814 643 813 q 529 881 579 844 q 440 961 479 917 q 370 1060 400 1006 q 315 1182 340 1115 q 531 1107 417 1143 q 772 1043 646 1071 q 1038 999 899 1015 q 1328 982 1176 982 l 1633 982 l 1517 675 q 1509 618 1500 632 q 1553 604 1518 604 l 1636 604 l 1781 982 l 2086 982 l 1765 144 z "}," ":{"ha":511,"x_min":0,"x_max":0,"o":""},"¡":{"ha":358,"x_min":42,"x_max":693,"o":"m 333 758 l 418 982 l 693 982 l 608 758 l 333 758 m 317 0 l 42 0 l 294 660 l 569 660 l 317 0 z "},"¢":{"ha":840,"x_min":115,"x_max":1101,"o":"m 563 563 q 600 621 579 606 q 656 636 621 636 l 674 636 q 717 622 708 636 q 710 564 726 607 l 692 517 l 997 517 l 1074 715 q 1079 825 1101 790 q 976 860 1057 860 l 860 860 l 906 982 l 686 982 l 640 860 l 528 860 q 396 825 447 860 q 317 715 344 790 l 144 267 q 140 157 115 192 q 244 122 164 122 l 357 122 l 310 0 l 529 0 l 576 122 l 790 122 l 932 346 l 544 346 q 501 361 510 346 q 508 419 492 376 l 563 563 z "},"£":{"ha":882,"x_min":35,"x_max":1019,"o":"m 35 0 l 803 0 l 947 224 l 574 224 l 633 379 l 839 379 l 982 600 l 718 600 l 779 758 l 875 758 l 1019 982 l 558 982 l 411 599 l 325 599 l 181 379 l 328 379 l 267 222 l 181 222 l 35 0 z "},"¤":{"ha":826,"x_min":21,"x_max":1182,"o":"m 500 0 l 490 174 l 468 174 l 326 0 l 21 0 l 292 322 l 422 661 l 397 982 l 703 982 l 711 811 l 736 811 l 876 982 l 1182 982 l 910 658 l 782 325 l 806 0 l 500 0 m 524 374 q 533 346 513 346 l 557 346 q 586 374 575 346 l 678 610 q 668 636 688 636 l 644 636 q 615 610 625 636 l 524 374 z "},"¥":{"ha":826,"x_min":115,"x_max":1182,"o":"m 971 590 l 835 590 l 1182 982 l 876 982 l 713 782 l 703 982 l 397 982 l 443 590 l 368 590 l 222 371 l 401 371 l 379 311 l 261 311 l 115 92 l 294 92 l 260 0 l 565 0 l 600 92 l 719 92 l 864 311 l 685 311 l 707 371 l 826 371 l 971 590 z "},"¦":{"ha":389,"x_min":-14,"x_max":779,"o":"m 547 519 l 779 1126 l 474 1126 l 242 519 l 547 519 m 292 -144 l 524 458 l 218 458 l -14 -144 l 292 -144 z "},"§":{"ha":826,"x_min":21,"x_max":1182,"o":"m 292 322 l 438 703 q 495 786 461 761 q 588 811 529 811 l 736 811 l 876 982 l 1182 982 l 910 658 l 764 279 q 617 174 725 174 l 468 174 l 326 0 l 21 0 l 292 322 m 524 374 q 533 346 513 346 l 557 346 q 586 374 575 346 l 678 610 q 668 636 688 636 l 644 636 q 615 610 625 636 l 524 374 z "},"¨":{"ha":572,"x_min":442,"x_max":1008,"o":"m 519 1246 l 442 1043 l 651 1043 l 729 1246 l 519 1246 m 799 1246 l 721 1043 l 931 1043 l 1008 1246 l 799 1246 z "},"©":{"ha":381,"x_min":360,"x_max":704,"o":"m 592 1044 q 658 1025 631 1044 q 696 967 692 1000 q 688 889 704 933 q 638 814 672 853 q 600 781 619 793 q 557 756 581 768 q 495 739 515 742 q 472 736 475 736 q 455 741 472 736 q 403 756 438 746 q 381 781 390 768 q 368 814 372 793 q 376 889 360 847 q 398 930 386 913 q 426 967 410 947 q 465 999 446 985 q 508 1025 483 1014 q 592 1044 610 1044 m 582 1019 q 513 1003 550 1019 q 446 954 476 988 q 403 889 415 924 q 397 828 392 860 q 424 779 401 801 l 433 776 q 483 763 451 763 q 553 779 517 763 q 621 828 589 794 q 661 889 650 861 q 669 954 674 924 q 638 1003 665 985 q 582 1019 614 1019 m 574 867 l 594 858 q 497 801 557 801 q 448 824 461 801 q 451 889 435 847 q 499 956 468 933 q 568 978 529 978 q 618 928 622 978 l 592 924 q 560 954 590 954 q 479 889 504 954 q 507 828 456 828 q 574 867 549 828 z "},"ª":{"ha":861,"x_min":42,"x_max":1169,"o":"m 492 378 l 658 378 l 514 0 l 819 0 l 1140 838 q 1147 947 1169 913 q 1043 982 1124 982 l 574 982 q 442 947 493 982 q 363 838 392 913 l 42 0 l 347 0 l 492 378 m 610 685 q 647 743 626 728 q 703 758 668 758 l 742 758 q 785 743 776 758 q 776 685 793 728 l 744 600 l 578 600 l 610 685 z "},"«":{"ha":540,"x_min":168,"x_max":781,"o":"m 422 331 l 593 246 l 669 446 l 579 490 l 704 535 l 781 735 l 546 650 l 422 331 m 168 331 l 339 246 l 415 446 l 325 490 l 450 535 l 526 735 l 292 650 l 168 331 z "},"¬":{"ha":596,"x_min":179,"x_max":785,"o":"m 649 246 l 785 600 l 326 600 l 179 378 l 479 378 l 429 246 l 649 246 z "},"­":{"ha":460,"x_min":179,"x_max":656,"o":"m 656 600 l 510 378 l 179 378 l 326 600 l 656 600 z "},"®":{"ha":381,"x_min":360,"x_max":704,"o":"m 590 1043 q 658 1024 626 1043 q 696 965 689 1000 q 686 888 704 922 q 638 813 674 853 q 556 754 607 778 q 497 737 518 739 q 472 735 475 735 q 401 754 433 735 q 368 813 376 775 q 375 888 360 843 q 397 928 385 911 q 426 965 408 946 q 464 998 444 983 q 508 1024 483 1013 q 569 1038 549 1033 q 590 1043 589 1043 m 581 1018 q 513 1002 549 1018 q 444 953 476 986 q 401 888 415 922 q 401 872 401 888 q 396 824 400 856 q 424 778 396 801 l 432 775 q 482 761 454 761 q 553 778 517 761 q 619 824 583 792 q 650 872 640 856 q 660 888 660 888 q 669 953 674 922 q 638 1001 664 983 q 581 1018 614 1018 m 432 804 l 496 971 l 553 971 q 593 964 586 971 q 607 950 603 963 q 609 931 613 942 q 596 908 606 919 q 572 889 586 897 q 540 879 557 881 q 554 863 551 872 q 563 836 557 854 l 572 804 l 538 804 l 533 829 q 519 868 529 863 q 500 874 515 874 l 485 874 l 458 804 l 432 804 m 494 896 l 526 896 q 561 903 550 896 q 578 922 572 910 q 571 946 585 938 q 544 947 571 947 l 514 947 l 494 896 z "},"¯":{"ha":739,"x_min":361,"x_max":1074,"o":"m 361 832 l 1017 832 l 1074 982 l 418 982 l 361 832 z "},"°":{"ha":293,"x_min":442,"x_max":729,"o":"m 729 1246 l 651 1043 l 442 1043 l 519 1246 l 729 1246 m 571 1172 l 549 1115 l 600 1115 l 622 1172 l 571 1172 z "},"±":{"ha":626,"x_min":33,"x_max":835,"o":"m 531 281 l 581 413 l 690 413 l 835 635 l 665 635 l 717 765 l 497 765 l 446 635 l 339 635 l 193 413 l 361 413 l 311 281 l 531 281 m 531 0 l 675 222 l 179 222 l 33 0 l 531 0 z "},"²":{"ha":469,"x_min":254,"x_max":804,"o":"m 485 711 q 500 732 492 731 l 614 732 q 688 751 660 732 q 732 814 715 771 l 789 961 q 792 1024 804 1004 q 733 1043 779 1043 l 526 1043 q 453 1024 481 1043 q 411 961 426 1004 l 378 876 l 547 876 q 561 903 556 896 q 575 910 567 910 l 583 910 q 592 889 600 910 l 590 885 q 567 865 582 865 l 460 865 q 342 783 374 865 l 254 553 l 608 553 l 692 686 l 475 686 l 485 711 z "},"³":{"ha":432,"x_min":283,"x_max":775,"o":"m 283 553 l 518 553 q 590 572 563 553 q 633 635 618 592 l 676 744 q 678 771 681 757 q 671 796 675 785 q 697 822 683 807 q 717 849 711 836 l 760 961 q 763 1024 775 1004 q 706 1043 750 1043 l 435 1043 l 419 910 l 556 910 q 564 889 572 910 l 561 883 q 539 864 554 864 l 397 864 l 379 731 l 488 731 q 496 711 503 731 l 493 706 q 471 686 486 686 l 300 686 l 283 553 z "},"´":{"ha":264,"x_min":442,"x_max":797,"o":"m 585 1246 l 442 1043 l 622 1043 l 797 1246 l 585 1246 z "},"µ":{"ha":861,"x_min":-14,"x_max":1196,"o":"m 457 285 l 724 982 l 418 982 l -14 -144 l 292 -144 l 347 0 l 667 0 q 797 35 747 0 q 875 144 846 69 l 1196 982 l 890 982 l 628 297 q 591 239 611 254 q 536 224 571 224 l 497 224 q 456 236 465 224 q 457 285 446 249 z "},"¶":{"ha":1388,"x_min":343,"x_max":1526,"o":"m 343 1182 q 559 1107 444 1143 q 800 1043 674 1071 q 1065 999 926 1015 q 1356 982 1204 982 l 1526 982 l 1360 0 l 1069 0 l 1135 413 q 1061 437 1093 426 q 979 458 1029 447 q 953 453 972 454 q 922 453 935 453 q 878 456 903 453 q 833 466 854 460 q 799 479 813 472 q 789 494 786 486 q 815 503 799 499 q 847 513 832 508 q 874 522 863 518 q 888 529 886 526 q 858 532 890 532 q 823 533 843 532 q 779 535 803 533 q 740 541 763 535 q 697 560 718 547 q 656 590 675 572 q 625 633 636 608 q 685 628 649 631 q 751 625 721 625 l 788 629 q 715 658 763 638 q 619 705 668 678 q 531 763 571 732 q 479 822 490 793 l 486 821 q 538 815 510 818 q 613 813 565 813 l 657 813 q 672 814 671 813 q 557 881 607 844 q 467 961 507 917 q 398 1060 428 1006 q 343 1182 368 1115 z "},"·":{"ha":307,"x_min":213,"x_max":522,"o":"m 299 668 l 213 446 l 436 446 l 522 668 l 299 668 z "},"¸":{"ha":293,"x_min":-200,"x_max":251,"o":"m 104 -236 l 239 -32 l 251 1 l 42 1 l 21 -53 l -82 -53 l -200 -236 l 104 -236 z "},"¹":{"ha":278,"x_min":278,"x_max":636,"o":"m 465 1043 l 636 1043 l 449 553 l 278 553 l 414 910 l 383 910 l 465 1043 z "},"º":{"ha":474,"x_min":269,"x_max":833,"o":"m 482 707 q 490 686 475 686 l 510 686 q 532 707 525 686 l 603 889 q 594 910 611 910 l 575 910 q 553 889 561 910 l 482 707 m 340 553 q 282 572 294 553 q 285 635 269 592 l 411 961 q 454 1024 426 1004 q 528 1043 482 1043 l 747 1043 q 801 961 833 1043 l 675 635 q 560 553 643 553 l 340 553 z "},"»":{"ha":540,"x_min":136,"x_max":749,"o":"m 371 331 l 136 246 l 213 446 l 339 490 l 247 535 l 324 735 l 494 650 l 371 331 m 625 331 l 390 246 l 467 446 l 593 490 l 501 535 l 578 735 l 749 650 l 625 331 z "},"¼":{"ha":856,"x_min":72,"x_max":974,"o":"m 942 490 l 690 490 l 588 369 l 974 982 l 686 982 l 457 614 l 597 982 l 428 982 l 347 849 l 378 849 l 240 492 l 379 492 l 72 0 l 360 0 l 439 128 l 633 128 l 585 0 l 753 0 l 801 128 l 835 128 l 921 260 l 853 260 l 942 490 m 667 260 l 704 313 l 685 260 l 667 260 z "},"½":{"ha":876,"x_min":72,"x_max":1000,"o":"m 428 982 l 347 849 l 378 849 l 240 492 l 379 492 l 72 0 l 360 0 l 590 368 l 572 324 l 742 324 q 756 350 750 343 q 771 357 763 357 l 779 357 q 786 336 794 357 l 785 332 q 761 313 776 313 l 654 313 q 538 231 569 313 l 449 0 l 803 0 l 886 133 l 669 133 l 679 158 q 696 179 685 176 l 810 179 q 883 199 856 179 q 926 261 910 218 l 983 408 q 988 471 1000 451 q 929 490 975 490 l 722 490 q 658 476 681 490 l 974 982 l 686 982 l 457 614 l 597 982 l 428 982 z "},"¾":{"ha":1026,"x_min":242,"x_max":1143,"o":"m 260 492 l 494 492 q 558 506 536 492 l 242 0 l 529 0 l 608 128 l 804 128 l 756 0 l 924 0 l 972 128 l 1006 128 l 1092 260 l 1024 260 l 1113 490 l 861 490 l 758 368 l 1143 982 l 856 982 l 625 613 l 653 683 q 654 710 657 696 q 647 735 651 724 q 674 760 660 746 q 693 788 688 775 l 736 900 q 739 963 751 943 q 682 982 726 982 l 411 982 l 397 849 l 533 849 q 540 828 549 849 l 538 822 q 515 803 531 803 l 374 803 l 356 669 l 464 669 q 472 650 479 669 l 469 644 q 447 625 463 625 l 276 625 l 260 492 m 838 260 l 875 313 l 856 260 l 838 260 z "},"¿":{"ha":779,"x_min":68,"x_max":1072,"o":"m 608 601 l 428 601 q 297 567 347 601 q 217 457 246 532 l 97 144 q 92 35 68 69 q 197 0 117 0 l 585 0 q 715 35 665 0 q 793 144 764 69 l 851 296 l 576 296 q 540 238 560 253 q 485 224 519 224 l 467 224 q 423 239 432 224 q 431 297 414 254 l 435 307 q 471 364 451 350 q 525 378 490 378 l 685 378 q 817 413 765 378 q 896 522 868 447 l 949 660 l 674 660 q 647 619 663 632 q 608 601 632 606 m 988 758 l 1072 982 l 797 982 l 713 758 l 988 758 z "},"À":{"ha":1804,"x_min":315,"x_max":1892,"o":"m 1593 1246 l 1613 1043 l 1793 1043 l 1806 1246 l 1593 1246 m 1892 982 l 1328 982 q 1038 999 1176 982 q 772 1043 899 1015 q 531 1107 646 1071 q 315 1182 417 1143 q 370 1060 340 1115 q 440 961 400 1006 q 529 881 479 917 q 644 814 579 844 q 629 813 643 813 l 585 813 q 510 815 538 813 q 458 821 482 818 l 451 822 q 503 763 463 793 q 592 705 543 732 q 688 658 640 678 q 760 629 735 638 l 724 625 q 657 628 693 625 q 597 633 621 631 q 628 590 608 608 q 669 560 647 572 q 713 541 690 547 q 751 535 735 535 q 795 533 775 533 q 831 532 815 532 q 860 529 863 532 q 847 522 858 526 q 819 513 835 518 q 788 503 804 508 q 761 494 771 499 q 772 479 758 486 q 806 466 785 472 q 851 456 826 460 q 894 453 875 453 q 926 453 907 453 q 951 458 944 454 q 992 443 972 449 q 1030 433 1011 438 q 1068 425 1049 429 q 1111 413 1088 421 l 1104 399 l 860 0 l 1317 0 l 1461 224 l 1294 224 l 1565 665 l 1483 0 l 1783 0 l 1892 982 z "},"Á":{"ha":1804,"x_min":315,"x_max":1946,"o":"m 1733 1246 l 1590 1043 l 1771 1043 l 1946 1246 l 1733 1246 m 1892 982 l 1328 982 q 1038 999 1176 982 q 772 1043 899 1015 q 531 1107 646 1071 q 315 1182 417 1143 q 370 1060 340 1115 q 440 961 400 1006 q 529 881 479 917 q 644 814 579 844 q 629 813 643 813 l 585 813 q 510 815 538 813 q 458 821 482 818 l 451 822 q 503 763 463 793 q 592 705 543 732 q 688 658 640 678 q 760 629 735 638 l 724 625 q 657 628 693 625 q 597 633 621 631 q 628 590 608 608 q 669 560 647 572 q 713 541 690 547 q 751 535 735 535 q 795 533 775 533 q 831 532 815 532 q 860 529 863 532 q 847 522 858 526 q 819 513 835 518 q 788 503 804 508 q 761 494 771 499 q 772 479 758 486 q 806 466 785 472 q 851 456 826 460 q 894 453 875 453 q 926 453 907 453 q 951 458 944 454 q 992 443 972 449 q 1030 433 1011 438 q 1068 425 1049 429 q 1111 413 1088 421 l 1104 399 l 860 0 l 1317 0 l 1461 224 l 1294 224 l 1565 665 l 1483 0 l 1783 0 l 1892 982 z "},"Â":{"ha":1804,"x_min":315,"x_max":1940,"o":"m 1614 1246 l 1451 1043 l 1651 1043 l 1738 1151 l 1740 1043 l 1940 1043 l 1933 1246 l 1614 1246 m 1892 982 l 1328 982 q 1038 999 1176 982 q 772 1043 899 1015 q 531 1107 646 1071 q 315 1182 417 1143 q 370 1060 340 1115 q 440 961 400 1006 q 529 881 479 917 q 644 814 579 844 q 629 813 643 813 l 585 813 q 510 815 538 813 q 458 821 482 818 l 451 822 q 503 763 463 793 q 592 705 543 732 q 688 658 640 678 q 760 629 735 638 l 724 625 q 657 628 693 625 q 597 633 621 631 q 628 590 608 608 q 669 560 647 572 q 713 541 690 547 q 751 535 735 535 q 795 533 775 533 q 831 532 815 532 q 860 529 863 532 q 847 522 858 526 q 819 513 835 518 q 788 503 804 508 q 761 494 771 499 q 772 479 758 486 q 806 466 785 472 q 851 456 826 460 q 894 453 875 453 q 926 453 907 453 q 951 458 944 454 q 992 443 972 449 q 1030 433 1011 438 q 1068 425 1049 429 q 1111 413 1088 421 l 1104 399 l 860 0 l 1317 0 l 1461 224 l 1294 224 l 1565 665 l 1483 0 l 1783 0 l 1892 982 z "},"Ã":{"ha":1804,"x_min":315,"x_max":2099,"o":"m 1936 1043 l 2099 1246 l 1899 1246 l 1813 1138 l 1810 1246 l 1549 1246 l 1386 1043 l 1586 1043 l 1671 1150 l 1675 1043 l 1936 1043 m 1892 982 l 1328 982 q 1038 999 1176 982 q 772 1043 899 1015 q 531 1107 646 1071 q 315 1182 417 1143 q 370 1060 340 1115 q 440 961 400 1006 q 529 881 479 917 q 644 814 579 844 q 629 813 643 813 l 585 813 q 510 815 538 813 q 458 821 482 818 l 451 822 q 503 763 463 793 q 592 705 543 732 q 688 658 640 678 q 760 629 735 638 l 724 625 q 657 628 693 625 q 597 633 621 631 q 628 590 608 608 q 669 560 647 572 q 713 541 690 547 q 751 535 735 535 q 795 533 775 533 q 831 532 815 532 q 860 529 863 532 q 847 522 858 526 q 819 513 835 518 q 788 503 804 508 q 761 494 771 499 q 772 479 758 486 q 806 466 785 472 q 851 456 826 460 q 894 453 875 453 q 926 453 907 453 q 951 458 944 454 q 992 443 972 449 q 1030 433 1011 438 q 1068 425 1049 429 q 1111 413 1088 421 l 1104 399 l 860 0 l 1317 0 l 1461 224 l 1294 224 l 1565 665 l 1483 0 l 1783 0 l 1892 982 z "},"Ä":{"ha":1804,"x_min":315,"x_max":2018,"o":"m 1529 1246 l 1451 1043 l 1661 1043 l 1739 1246 l 1529 1246 m 1808 1246 l 1731 1043 l 1940 1043 l 2018 1246 l 1808 1246 m 1892 982 l 1328 982 q 1038 999 1176 982 q 772 1043 899 1015 q 531 1107 646 1071 q 315 1182 417 1143 q 370 1060 340 1115 q 440 961 400 1006 q 529 881 479 917 q 644 814 579 844 q 629 813 643 813 l 585 813 q 510 815 538 813 q 458 821 482 818 l 451 822 q 503 763 463 793 q 592 705 543 732 q 688 658 640 678 q 760 629 735 638 l 724 625 q 657 628 693 625 q 597 633 621 631 q 628 590 608 608 q 669 560 647 572 q 713 541 690 547 q 751 535 735 535 q 795 533 775 533 q 831 532 815 532 q 860 529 863 532 q 847 522 858 526 q 819 513 835 518 q 788 503 804 508 q 761 494 771 499 q 772 479 758 486 q 806 466 785 472 q 851 456 826 460 q 894 453 875 453 q 926 453 907 453 q 951 458 944 454 q 992 443 972 449 q 1030 433 1011 438 q 1068 425 1049 429 q 1111 413 1088 421 l 1104 399 l 860 0 l 1317 0 l 1461 224 l 1294 224 l 1565 665 l 1483 0 l 1783 0 l 1892 982 z "},"Å":{"ha":1804,"x_min":315,"x_max":1892,"o":"m 1772 1172 l 1750 1115 l 1699 1115 l 1721 1172 l 1772 1172 m 1669 1246 l 1592 1043 l 1801 1043 l 1879 1246 l 1669 1246 m 1892 982 l 1328 982 q 1038 999 1176 982 q 772 1043 899 1015 q 531 1107 646 1071 q 315 1182 417 1143 q 370 1060 340 1115 q 440 961 400 1006 q 529 881 479 917 q 644 814 579 844 q 629 813 643 813 l 585 813 q 510 815 538 813 q 458 821 482 818 l 451 822 q 503 763 463 793 q 592 705 543 732 q 688 658 640 678 q 760 629 735 638 l 724 625 q 657 628 693 625 q 597 633 621 631 q 628 590 608 608 q 669 560 647 572 q 713 541 690 547 q 751 535 735 535 q 795 533 775 533 q 831 532 815 532 q 860 529 863 532 q 847 522 858 526 q 819 513 835 518 q 788 503 804 508 q 761 494 771 499 q 772 479 758 486 q 806 466 785 472 q 851 456 826 460 q 894 453 875 453 q 926 453 907 453 q 951 458 944 454 q 992 443 972 449 q 1030 433 1011 438 q 1068 425 1049 429 q 1111 413 1088 421 l 1104 399 l 860 0 l 1317 0 l 1461 224 l 1294 224 l 1565 665 l 1483 0 l 1783 0 l 1892 982 z "},"Æ":{"ha":2350,"x_min":315,"x_max":2706,"o":"m 2269 0 l 2414 224 l 2021 224 l 2081 379 l 2353 379 l 2496 600 l 2165 600 l 2226 758 l 2561 758 l 2706 982 l 2006 982 l 1844 561 l 1892 982 l 1328 982 q 1038 999 1176 982 q 772 1043 899 1015 q 531 1107 646 1071 q 315 1182 417 1143 q 370 1060 340 1115 q 440 961 400 1006 q 529 881 479 917 q 644 814 579 844 q 629 813 643 813 l 585 813 q 510 815 538 813 q 458 821 482 818 l 451 822 q 503 763 463 793 q 592 705 543 732 q 688 658 640 678 q 760 629 735 638 l 724 625 q 657 628 693 625 q 597 633 621 631 q 628 590 608 608 q 669 560 647 572 q 713 541 690 547 q 751 535 735 535 q 795 533 775 533 q 831 532 815 532 q 860 529 863 532 q 847 522 858 526 q 819 513 835 518 q 788 503 804 508 q 761 494 771 499 q 772 479 758 486 q 806 466 785 472 q 851 456 826 460 q 894 453 875 453 q 926 453 907 453 q 951 458 944 454 q 996 443 976 450 q 1033 431 1015 436 q 1068 422 1050 426 q 1108 413 1086 417 l 1104 399 l 860 0 l 1317 0 l 1461 224 l 1294 224 l 1565 665 l 1483 0 l 2269 0 z "},"Ç":{"ha":1750,"x_min":315,"x_max":2058,"o":"m 1349 -236 l 1483 -32 l 1496 0 l 1653 0 l 1794 224 l 1406 224 q 1362 239 1371 224 q 1369 297 1353 254 l 1518 685 q 1556 743 1535 728 q 1611 758 1576 758 l 1631 758 q 1674 744 1665 758 q 1667 686 1682 729 l 1649 639 l 1954 639 l 2029 838 q 2035 947 2058 913 q 1932 982 2013 982 l 1328 982 q 1038 999 1176 982 q 772 1043 899 1015 q 531 1107 646 1071 q 315 1182 417 1143 q 370 1060 340 1115 q 440 961 400 1006 q 529 881 479 917 q 644 814 579 844 q 629 813 643 813 l 585 813 q 510 815 538 813 q 458 821 482 818 l 451 822 q 503 763 463 793 q 592 705 543 732 q 688 658 640 678 q 760 629 735 638 l 724 625 q 657 628 693 625 q 597 633 621 631 q 628 590 608 608 q 669 560 647 572 q 713 541 690 547 q 751 535 735 535 q 795 533 775 533 q 831 532 815 532 q 860 529 863 532 q 847 522 858 526 q 819 513 835 518 q 788 503 804 508 q 761 494 771 499 q 772 479 758 486 q 806 466 785 472 q 851 456 826 460 q 894 453 875 453 q 926 453 907 453 q 951 458 944 454 q 1033 437 1001 447 q 1107 413 1065 426 l 1106 407 l 1006 144 q 1001 35 976 69 q 1106 0 1025 0 l 1286 0 l 1265 -53 l 1163 -53 l 1044 -236 l 1349 -236 z "},"È":{"ha":1671,"x_min":315,"x_max":2026,"o":"m 1590 0 l 1735 224 l 1342 224 l 1401 379 l 1674 379 l 1817 600 l 1486 600 l 1547 758 l 1882 758 l 2026 982 l 1326 982 q 1038 999 1176 982 q 772 1043 899 1015 q 531 1107 646 1071 q 315 1182 417 1143 q 370 1060 340 1115 q 440 961 400 1006 q 529 881 479 917 q 644 814 579 844 q 629 813 643 813 l 585 813 q 510 815 538 813 q 458 821 482 818 l 451 822 q 503 763 463 793 q 592 705 543 732 q 688 658 640 678 q 760 629 735 638 l 724 625 q 657 628 693 625 q 597 633 621 631 q 628 590 608 608 q 669 560 647 572 q 713 541 690 547 q 751 535 735 535 q 795 533 775 533 q 831 532 815 532 q 860 529 863 532 q 847 522 858 526 q 819 513 835 518 q 788 503 804 508 q 761 494 771 499 q 772 479 758 486 q 806 466 785 472 q 851 456 826 460 q 894 453 875 453 q 926 453 907 453 q 951 458 944 454 q 1033 437 1001 447 q 1107 413 1065 426 l 1106 407 l 950 0 l 1590 0 m 1610 1246 l 1629 1043 l 1810 1043 l 1822 1246 l 1610 1246 z "},"É":{"ha":1671,"x_min":315,"x_max":2026,"o":"m 1590 0 l 1735 224 l 1342 224 l 1401 379 l 1674 379 l 1817 600 l 1486 600 l 1547 758 l 1882 758 l 2026 982 l 1326 982 q 1038 999 1176 982 q 772 1043 899 1015 q 531 1107 646 1071 q 315 1182 417 1143 q 370 1060 340 1115 q 440 961 400 1006 q 529 881 479 917 q 644 814 579 844 q 629 813 643 813 l 585 813 q 510 815 538 813 q 458 821 482 818 l 451 822 q 503 763 463 793 q 592 705 543 732 q 688 658 640 678 q 760 629 735 638 l 724 625 q 657 628 693 625 q 597 633 621 631 q 628 590 608 608 q 669 560 647 572 q 713 541 690 547 q 751 535 735 535 q 795 533 775 533 q 831 532 815 532 q 860 529 863 532 q 847 522 858 526 q 819 513 835 518 q 788 503 804 508 q 761 494 771 499 q 772 479 758 486 q 806 466 785 472 q 851 456 826 460 q 894 453 875 453 q 926 453 907 453 q 951 458 944 454 q 1033 437 1001 447 q 1107 413 1065 426 l 1106 407 l 950 0 l 1590 0 m 1725 1246 l 1582 1043 l 1763 1043 l 1938 1246 l 1725 1246 z "},"Ê":{"ha":1671,"x_min":315,"x_max":2026,"o":"m 1590 0 l 1735 224 l 1342 224 l 1401 379 l 1674 379 l 1817 600 l 1486 600 l 1547 758 l 1882 758 l 2026 982 l 1328 982 q 1038 999 1176 982 q 772 1043 899 1015 q 531 1107 646 1071 q 315 1182 417 1143 q 370 1060 340 1115 q 440 961 400 1006 q 529 881 479 917 q 644 814 579 844 q 629 813 643 813 l 585 813 q 510 815 538 813 q 458 821 482 818 l 451 822 q 503 763 463 793 q 592 705 543 732 q 688 658 640 678 q 760 629 735 638 l 724 625 q 657 628 693 625 q 597 633 621 631 q 628 590 608 608 q 669 560 647 572 q 713 541 690 547 q 751 535 735 535 q 795 533 775 533 q 831 532 815 532 q 860 529 863 532 q 847 522 858 526 q 819 513 835 518 q 788 503 804 508 q 761 494 771 499 q 772 479 758 486 q 806 466 785 472 q 851 456 826 460 q 894 453 875 453 q 926 453 907 453 q 951 458 944 454 q 1033 437 1001 447 q 1107 413 1065 426 l 1106 407 l 950 0 l 1590 0 m 1614 1246 l 1451 1043 l 1651 1043 l 1738 1151 l 1740 1043 l 1940 1043 l 1933 1246 l 1614 1246 z "},"Ë":{"ha":1671,"x_min":315,"x_max":2026,"o":"m 1590 0 l 1735 224 l 1342 224 l 1401 379 l 1674 379 l 1817 600 l 1486 600 l 1547 758 l 1882 758 l 2026 982 l 1326 982 q 1038 999 1176 982 q 772 1043 899 1015 q 531 1107 646 1071 q 315 1182 417 1143 q 370 1060 340 1115 q 440 961 400 1006 q 529 881 479 917 q 644 814 579 844 q 629 813 643 813 l 585 813 q 510 815 538 813 q 458 821 482 818 l 451 822 q 503 763 463 793 q 592 705 543 732 q 688 658 640 678 q 760 629 735 638 l 724 625 q 657 628 693 625 q 597 633 621 631 q 628 590 608 608 q 669 560 647 572 q 713 541 690 547 q 751 535 735 535 q 795 533 775 533 q 831 532 815 532 q 860 529 863 532 q 847 522 858 526 q 819 513 835 518 q 788 503 804 508 q 761 494 771 499 q 772 479 758 486 q 806 466 785 472 q 851 456 826 460 q 894 453 875 453 q 926 453 907 453 q 951 458 944 454 q 1033 437 1001 447 q 1107 413 1065 426 l 1106 407 l 950 0 l 1590 0 m 1529 1246 l 1451 1043 l 1661 1043 l 1739 1246 l 1529 1246 m 1808 1246 l 1731 1043 l 1940 1043 l 2018 1246 l 1808 1246 z "},"Ì":{"ha":1297,"x_min":315,"x_max":1654,"o":"m 1632 982 l 1328 982 q 1038 999 1176 982 q 772 1043 899 1015 q 531 1107 646 1071 q 315 1182 417 1143 q 370 1060 340 1115 q 440 961 400 1006 q 529 881 479 917 q 644 814 579 844 q 629 813 643 813 l 585 813 q 510 815 538 813 q 458 821 482 818 l 451 822 q 503 763 463 793 q 592 705 543 732 q 688 658 640 678 q 760 629 735 638 l 724 625 q 657 628 693 625 q 597 633 621 631 q 628 590 608 608 q 669 560 647 572 q 713 541 690 547 q 751 535 735 535 q 795 533 775 533 q 831 532 815 532 q 860 529 863 532 q 847 522 858 526 q 819 513 835 518 q 788 503 804 508 q 761 494 771 499 q 772 479 758 486 q 806 466 785 472 q 851 456 826 460 q 894 453 875 453 q 926 453 907 453 q 951 458 944 454 q 1033 437 1001 447 q 1107 413 1065 426 l 1106 407 l 950 0 l 1256 0 l 1632 982 m 1442 1246 l 1461 1043 l 1642 1043 l 1654 1246 l 1442 1246 z "},"Í":{"ha":1297,"x_min":315,"x_max":1719,"o":"m 1632 982 l 1328 982 q 1038 999 1176 982 q 772 1043 899 1015 q 531 1107 646 1071 q 315 1182 417 1143 q 370 1060 340 1115 q 440 961 400 1006 q 529 881 479 917 q 644 814 579 844 q 629 813 643 813 l 585 813 q 510 815 538 813 q 458 821 482 818 l 451 822 q 503 763 463 793 q 592 705 543 732 q 688 658 640 678 q 760 629 735 638 l 724 625 q 657 628 693 625 q 597 633 621 631 q 628 590 608 608 q 669 560 647 572 q 713 541 690 547 q 751 535 735 535 q 795 533 775 533 q 831 532 815 532 q 860 529 863 532 q 847 522 858 526 q 819 513 835 518 q 788 503 804 508 q 761 494 771 499 q 772 479 758 486 q 806 466 785 472 q 851 456 826 460 q 894 453 875 453 q 926 453 907 453 q 951 458 944 454 q 1033 437 1001 447 q 1107 413 1065 426 l 1106 407 l 950 0 l 1256 0 l 1632 982 m 1507 1246 l 1364 1043 l 1544 1043 l 1719 1246 l 1507 1246 z "},"Î":{"ha":1389,"x_min":315,"x_max":1747,"o":"m 1632 982 l 1326 982 q 1038 999 1176 982 q 772 1043 899 1015 q 531 1107 646 1071 q 315 1182 417 1143 q 370 1060 340 1115 q 440 961 400 1006 q 529 881 479 917 q 644 814 579 844 q 629 813 643 813 l 585 813 q 510 815 538 813 q 458 821 482 818 l 451 822 q 503 763 463 793 q 592 705 543 732 q 688 658 640 678 q 760 629 735 638 l 724 625 q 657 628 693 625 q 597 633 621 631 q 628 590 608 608 q 669 560 647 572 q 713 541 690 547 q 751 535 735 535 q 795 533 775 533 q 831 532 815 532 q 860 529 863 532 q 847 522 858 526 q 819 513 835 518 q 788 503 804 508 q 761 494 771 499 q 772 479 758 486 q 806 466 785 472 q 851 456 826 460 q 894 453 875 453 q 926 453 907 453 q 951 458 944 454 q 1033 437 1001 447 q 1107 413 1065 426 l 1106 407 l 950 0 l 1256 0 l 1632 982 m 1421 1246 l 1258 1043 l 1458 1043 l 1544 1151 l 1547 1043 l 1747 1043 l 1740 1246 l 1421 1246 z "},"Ï":{"ha":1389,"x_min":315,"x_max":1825,"o":"m 1632 982 l 1328 982 q 1038 999 1176 982 q 772 1043 899 1015 q 531 1107 646 1071 q 315 1182 417 1143 q 370 1060 340 1115 q 440 961 400 1006 q 529 881 479 917 q 644 814 579 844 q 629 813 643 813 l 585 813 q 510 815 538 813 q 458 821 482 818 l 451 822 q 503 763 463 793 q 592 705 543 732 q 688 658 640 678 q 760 629 735 638 l 724 625 q 657 628 693 625 q 597 633 621 631 q 628 590 608 608 q 669 560 647 572 q 713 541 690 547 q 751 535 735 535 q 795 533 775 533 q 831 532 815 532 q 860 529 863 532 q 847 522 858 526 q 819 513 835 518 q 788 503 804 508 q 761 494 771 499 q 772 479 758 486 q 806 466 785 472 q 851 456 826 460 q 894 453 875 453 q 926 453 907 453 q 951 458 944 454 q 1033 437 1001 447 q 1107 413 1065 426 l 1106 407 l 950 0 l 1256 0 l 1632 982 m 1336 1246 l 1258 1043 l 1468 1043 l 1546 1246 l 1336 1246 m 1615 1246 l 1538 1043 l 1747 1043 l 1825 1246 l 1615 1246 z "},"Ð":{"ha":956,"x_min":136,"x_max":1264,"o":"m 1138 982 l 510 982 l 368 758 l 428 758 l 367 600 l 326 600 l 179 378 l 281 378 l 136 0 l 761 0 q 891 35 842 0 q 969 144 940 69 l 1235 838 q 1241 947 1264 913 q 1138 982 1218 982 m 775 600 l 672 600 l 733 758 l 836 758 q 879 743 871 758 q 871 685 888 728 l 722 297 q 685 239 706 254 q 631 224 665 224 l 528 224 l 586 378 l 629 378 l 775 600 z "},"Ñ":{"ha":1772,"x_min":315,"x_max":2135,"o":"m 2107 982 l 1801 982 l 1661 615 l 1547 982 l 1326 982 q 1038 999 1176 982 q 772 1043 899 1015 q 531 1107 646 1071 q 315 1182 417 1143 q 370 1060 340 1115 q 440 961 400 1006 q 529 881 479 917 q 644 814 579 844 q 629 813 643 813 l 585 813 q 510 815 538 813 q 458 821 482 818 l 451 822 q 503 763 463 793 q 592 705 543 732 q 688 658 640 678 q 760 629 735 638 l 724 625 q 657 628 693 625 q 597 633 621 631 q 628 590 608 608 q 669 560 647 572 q 713 541 690 547 q 751 535 735 535 q 795 533 775 533 q 831 532 815 532 q 860 529 863 532 q 847 522 858 526 q 819 513 835 518 q 788 503 804 508 q 761 494 771 499 q 772 479 758 486 q 806 466 785 472 q 851 456 826 460 q 894 453 875 453 q 926 453 907 453 q 951 458 944 454 q 1033 437 1001 447 q 1107 413 1065 426 l 1106 407 l 950 0 l 1256 0 l 1396 367 l 1510 0 l 1731 0 l 2107 982 m 1972 1043 l 2135 1246 l 1935 1246 l 1849 1138 l 1846 1246 l 1585 1246 l 1422 1043 l 1622 1043 l 1707 1150 l 1711 1043 l 1972 1043 z "},"Ò":{"ha":1772,"x_min":315,"x_max":2081,"o":"m 1575 0 q 1706 35 1656 0 q 1786 144 1757 69 l 2051 838 q 2056 947 2081 913 q 1951 982 2032 982 l 1328 982 q 1038 999 1176 982 q 772 1043 899 1015 q 531 1107 646 1071 q 315 1182 417 1143 q 370 1060 340 1115 q 440 961 400 1006 q 529 881 479 917 q 644 814 579 844 q 629 813 643 813 l 585 813 q 510 815 538 813 q 458 821 482 818 l 451 822 q 503 763 463 793 q 592 705 543 732 q 688 658 640 678 q 760 629 735 638 l 724 625 q 657 628 693 625 q 597 633 621 631 q 628 590 608 608 q 669 560 647 572 q 713 541 690 547 q 751 535 735 535 q 795 533 775 533 q 831 532 815 532 q 860 529 863 532 q 847 522 858 526 q 819 513 835 518 q 788 503 804 508 q 761 494 771 499 q 772 479 758 486 q 806 466 785 472 q 851 456 826 460 q 894 453 875 453 q 926 453 907 453 q 951 458 944 454 q 1033 437 1001 447 q 1107 413 1065 426 l 1106 407 l 1006 144 q 999 35 976 69 q 1103 0 1022 0 l 1575 0 m 1539 297 q 1502 239 1522 254 q 1447 224 1482 224 l 1406 224 q 1362 239 1371 224 q 1369 297 1353 254 l 1518 685 q 1556 743 1535 728 q 1611 758 1576 758 l 1653 758 q 1696 743 1688 758 q 1688 685 1704 728 l 1539 297 m 1654 1246 l 1674 1043 l 1854 1043 l 1867 1246 l 1654 1246 z "},"Ó":{"ha":1772,"x_min":315,"x_max":2081,"o":"m 1578 0 q 1708 35 1658 0 q 1786 144 1757 69 l 2051 838 q 2058 947 2081 913 q 1954 982 2035 982 l 1328 982 q 1038 999 1176 982 q 772 1043 899 1015 q 531 1107 646 1071 q 315 1182 417 1143 q 370 1060 340 1115 q 440 961 400 1006 q 529 881 479 917 q 644 814 579 844 q 629 813 643 813 l 585 813 q 510 815 538 813 q 458 821 482 818 l 451 822 q 503 763 463 793 q 592 705 543 732 q 688 658 640 678 q 760 629 735 638 l 724 625 q 657 628 693 625 q 597 633 621 631 q 628 590 608 608 q 669 560 647 572 q 713 541 690 547 q 751 535 735 535 q 795 533 775 533 q 831 532 815 532 q 860 529 863 532 q 847 522 858 526 q 819 513 835 518 q 788 503 804 508 q 761 494 771 499 q 772 479 758 486 q 806 466 785 472 q 851 456 826 460 q 894 453 875 453 q 926 453 907 453 q 951 458 944 454 q 1033 437 1001 447 q 1107 413 1065 426 l 1106 407 l 1006 144 q 1001 35 976 69 q 1106 0 1025 0 l 1578 0 m 1518 685 q 1556 743 1535 728 q 1611 758 1576 758 l 1653 758 q 1696 743 1688 758 q 1688 685 1704 728 l 1539 297 q 1502 239 1522 254 q 1447 224 1482 224 l 1406 224 q 1362 239 1371 224 q 1369 297 1353 254 l 1518 685 m 1769 1246 l 1626 1043 l 1807 1043 l 1982 1246 l 1769 1246 z "},"Ô":{"ha":1772,"x_min":315,"x_max":2081,"o":"m 1578 0 q 1708 35 1658 0 q 1786 144 1757 69 l 2051 838 q 2058 947 2081 913 q 1954 982 2035 982 l 1328 982 q 1038 999 1176 982 q 772 1043 899 1015 q 531 1107 646 1071 q 315 1182 417 1143 q 370 1060 340 1115 q 440 961 400 1006 q 529 881 479 917 q 644 814 579 844 q 629 813 643 813 l 585 813 q 510 815 538 813 q 458 821 482 818 l 451 822 q 503 763 463 793 q 592 705 543 732 q 688 658 640 678 q 760 629 735 638 l 724 625 q 657 628 693 625 q 597 633 621 631 q 628 590 608 608 q 669 560 647 572 q 713 541 690 547 q 751 535 735 535 q 795 533 775 533 q 831 532 815 532 q 860 529 863 532 q 847 522 858 526 q 819 513 835 518 q 788 503 804 508 q 761 494 771 499 q 772 479 758 486 q 806 466 785 472 q 851 456 826 460 q 894 453 875 453 q 926 453 907 453 q 951 458 944 454 q 1033 437 1001 447 q 1107 413 1065 426 l 1106 407 l 1006 144 q 1001 35 976 69 q 1106 0 1025 0 l 1578 0 m 1518 685 q 1556 743 1535 728 q 1611 758 1576 758 l 1653 758 q 1696 743 1688 758 q 1688 685 1704 728 l 1539 297 q 1502 239 1522 254 q 1447 224 1482 224 l 1406 224 q 1362 239 1371 224 q 1369 297 1353 254 l 1518 685 m 1658 1246 l 1496 1043 l 1696 1043 l 1782 1151 l 1785 1043 l 1985 1043 l 1978 1246 l 1658 1246 z "},"Õ":{"ha":1772,"x_min":315,"x_max":2135,"o":"m 1578 0 q 1708 35 1658 0 q 1786 144 1757 69 l 2051 838 q 2058 947 2081 913 q 1954 982 2035 982 l 1328 982 q 1038 999 1176 982 q 772 1043 899 1015 q 531 1107 646 1071 q 315 1182 417 1143 q 370 1060 340 1115 q 440 961 400 1006 q 529 881 479 917 q 644 814 579 844 q 629 813 643 813 l 585 813 q 510 815 538 813 q 458 821 482 818 l 451 822 q 503 763 463 793 q 592 705 543 732 q 688 658 640 678 q 760 629 735 638 l 724 625 q 657 628 693 625 q 597 633 621 631 q 628 590 608 608 q 669 560 647 572 q 713 541 690 547 q 751 535 735 535 q 795 533 775 533 q 831 532 815 532 q 860 529 863 532 q 847 522 858 526 q 819 513 835 518 q 788 503 804 508 q 761 494 771 499 q 772 479 758 486 q 806 466 785 472 q 851 456 826 460 q 894 453 875 453 q 926 453 907 453 q 951 458 944 454 q 1033 437 1001 447 q 1107 413 1065 426 l 1106 407 l 1006 144 q 1001 35 976 69 q 1106 0 1025 0 l 1578 0 m 1972 1043 l 2135 1246 l 1935 1246 l 1849 1138 l 1846 1246 l 1585 1246 l 1422 1043 l 1622 1043 l 1707 1150 l 1711 1043 l 1972 1043 m 1518 685 q 1556 743 1535 728 q 1611 758 1576 758 l 1653 758 q 1696 743 1688 758 q 1688 685 1704 728 l 1539 297 q 1502 239 1522 254 q 1447 224 1482 224 l 1406 224 q 1362 239 1371 224 q 1369 297 1353 254 l 1518 685 z "},"Ö":{"ha":1772,"x_min":315,"x_max":2081,"o":"m 1578 0 q 1708 35 1658 0 q 1786 144 1757 69 l 2051 838 q 2058 947 2081 913 q 1954 982 2035 982 l 1328 982 q 1038 999 1176 982 q 772 1043 899 1015 q 531 1107 646 1071 q 315 1182 417 1143 q 370 1060 340 1115 q 440 961 400 1006 q 529 881 479 917 q 644 814 579 844 q 629 813 643 813 l 585 813 q 510 815 538 813 q 458 821 482 818 l 451 822 q 503 763 463 793 q 592 705 543 732 q 688 658 640 678 q 760 629 735 638 l 724 625 q 657 628 693 625 q 597 633 621 631 q 628 590 608 608 q 669 560 647 572 q 713 541 690 547 q 751 535 735 535 q 795 533 775 533 q 831 532 815 532 q 860 529 863 532 q 847 522 858 526 q 819 513 835 518 q 788 503 804 508 q 761 494 771 499 q 772 479 758 486 q 806 466 785 472 q 851 456 826 460 q 894 453 875 453 q 926 453 907 453 q 951 458 944 454 q 1033 437 1001 447 q 1107 413 1065 426 l 1106 407 l 1006 144 q 1001 35 976 69 q 1106 0 1025 0 l 1578 0 m 1518 685 q 1556 743 1535 728 q 1611 758 1576 758 l 1653 758 q 1696 743 1688 758 q 1688 685 1704 728 l 1539 297 q 1502 239 1522 254 q 1447 224 1482 224 l 1406 224 q 1362 239 1371 224 q 1369 297 1353 254 l 1518 685 m 1574 1246 l 1496 1043 l 1706 1043 l 1783 1246 l 1574 1246 m 1853 1246 l 1775 1043 l 1985 1043 l 2063 1246 l 1853 1246 z "},"×":{"ha":568,"x_min":186,"x_max":757,"o":"m 257 581 l 315 488 l 186 394 l 282 239 l 411 332 l 469 238 l 685 393 l 626 488 l 757 582 l 661 738 l 531 643 l 472 736 l 257 581 z "},"Ø":{"ha":864,"x_min":68,"x_max":1172,"o":"m 571 982 q 441 947 490 982 q 363 838 392 913 l 97 144 q 91 35 68 69 q 194 0 114 0 l 667 0 q 798 35 747 0 q 878 144 849 69 l 1143 838 q 1148 947 1172 913 q 1043 982 1124 982 l 571 982 m 631 297 q 594 239 614 254 q 539 224 574 224 l 494 224 l 710 504 l 631 297 m 610 685 q 647 743 626 728 q 703 758 668 758 l 747 758 l 531 478 l 610 685 z "},"Ù":{"ha":1769,"x_min":315,"x_max":2104,"o":"m 1536 297 q 1499 239 1519 254 q 1444 224 1479 224 l 1406 224 q 1362 239 1371 224 q 1369 297 1353 254 l 1632 982 l 1326 982 q 1038 999 1176 982 q 772 1043 899 1015 q 531 1107 646 1071 q 315 1182 417 1143 q 370 1060 340 1115 q 440 961 400 1006 q 529 881 479 917 q 644 814 579 844 q 629 813 643 813 l 585 813 q 510 815 538 813 q 458 821 482 818 l 451 822 q 503 763 463 793 q 592 705 543 732 q 688 658 640 678 q 760 629 735 638 l 724 625 q 657 628 693 625 q 597 633 621 631 q 628 590 608 608 q 669 560 647 572 q 713 541 690 547 q 751 535 735 535 q 795 533 775 533 q 831 532 815 532 q 860 529 863 532 q 847 522 858 526 q 819 513 835 518 q 788 503 804 508 q 761 494 771 499 q 772 479 758 486 q 806 466 785 472 q 851 456 826 460 q 894 453 875 453 q 926 453 907 453 q 951 458 944 454 q 1033 437 1001 447 q 1107 413 1065 426 l 1106 407 l 1006 144 q 999 35 976 69 q 1103 0 1022 0 l 1572 0 q 1703 35 1653 0 q 1783 144 1754 69 l 2104 982 l 1799 982 l 1536 297 m 1653 1246 l 1672 1043 l 1853 1043 l 1865 1246 l 1653 1246 z "},"Ú":{"ha":1769,"x_min":315,"x_max":2104,"o":"m 1369 297 l 1632 982 l 1328 982 q 1038 999 1176 982 q 772 1043 899 1015 q 531 1107 646 1071 q 315 1182 417 1143 q 370 1060 340 1115 q 440 961 400 1006 q 529 881 479 917 q 644 814 579 844 q 629 813 643 813 l 585 813 q 510 815 538 813 q 458 821 482 818 l 451 822 q 503 763 463 793 q 592 705 543 732 q 688 658 640 678 q 760 629 735 638 l 724 625 q 657 628 693 625 q 597 633 621 631 q 628 590 608 608 q 669 560 647 572 q 713 541 690 547 q 751 535 735 535 q 795 533 775 533 q 831 532 815 532 q 860 529 863 532 q 847 522 858 526 q 819 513 835 518 q 788 503 804 508 q 761 494 771 499 q 772 479 758 486 q 806 466 785 472 q 851 456 826 460 q 894 453 875 453 q 926 453 907 453 q 951 458 944 454 q 1033 437 1001 447 q 1107 413 1065 426 l 1106 407 l 1006 144 q 1001 35 976 69 q 1106 0 1025 0 l 1575 0 q 1705 35 1656 0 q 1783 144 1754 69 l 2104 982 l 1799 982 l 1536 297 q 1499 239 1519 254 q 1444 224 1479 224 l 1406 224 q 1362 239 1371 224 q 1369 297 1353 254 m 1768 1246 l 1625 1043 l 1806 1043 l 1981 1246 l 1768 1246 z "},"Û":{"ha":1769,"x_min":315,"x_max":2104,"o":"m 1369 297 l 1632 982 l 1326 982 q 1038 999 1176 982 q 772 1043 899 1015 q 531 1107 646 1071 q 315 1182 417 1143 q 370 1060 340 1115 q 440 961 400 1006 q 529 881 479 917 q 644 814 579 844 q 629 813 643 813 l 585 813 q 510 815 538 813 q 458 821 482 818 l 451 822 q 503 763 463 793 q 592 705 543 732 q 688 658 640 678 q 760 629 735 638 l 724 625 q 657 628 693 625 q 597 633 621 631 q 628 590 608 608 q 669 560 647 572 q 713 541 690 547 q 751 535 735 535 q 795 533 775 533 q 831 532 815 532 q 860 529 863 532 q 847 522 858 526 q 819 513 835 518 q 788 503 804 508 q 761 494 771 499 q 772 479 758 486 q 806 466 785 472 q 851 456 826 460 q 894 453 875 453 q 926 453 907 453 q 951 458 944 454 q 1033 437 1001 447 q 1107 413 1065 426 l 1106 407 l 1006 144 q 1001 35 976 69 q 1106 0 1025 0 l 1575 0 q 1705 35 1656 0 q 1783 144 1754 69 l 2104 982 l 1799 982 l 1536 297 q 1499 239 1519 254 q 1444 224 1479 224 l 1406 224 q 1362 239 1371 224 q 1369 297 1353 254 m 1657 1246 l 1494 1043 l 1694 1043 l 1781 1151 l 1783 1043 l 1983 1043 l 1976 1246 l 1657 1246 z "},"Ü":{"ha":1769,"x_min":315,"x_max":2104,"o":"m 1369 297 l 1632 982 l 1328 982 q 1038 999 1176 982 q 772 1043 899 1015 q 531 1107 646 1071 q 315 1182 417 1143 q 370 1060 340 1115 q 440 961 400 1006 q 529 881 479 917 q 644 814 579 844 q 629 813 643 813 l 585 813 q 510 815 538 813 q 458 821 482 818 l 451 822 q 503 763 463 793 q 592 705 543 732 q 688 658 640 678 q 760 629 735 638 l 724 625 q 657 628 693 625 q 597 633 621 631 q 628 590 608 608 q 669 560 647 572 q 713 541 690 547 q 751 535 735 535 q 795 533 775 533 q 831 532 815 532 q 860 529 863 532 q 847 522 858 526 q 819 513 835 518 q 788 503 804 508 q 761 494 771 499 q 772 479 758 486 q 806 466 785 472 q 851 456 826 460 q 894 453 875 453 q 926 453 907 453 q 951 458 944 454 q 1033 437 1001 447 q 1107 413 1065 426 l 1106 407 l 1006 144 q 1001 35 976 69 q 1106 0 1025 0 l 1575 0 q 1705 35 1656 0 q 1783 144 1754 69 l 2104 982 l 1799 982 l 1536 297 q 1499 239 1519 254 q 1444 224 1479 224 l 1406 224 q 1362 239 1371 224 q 1369 297 1353 254 m 1572 1246 l 1494 1043 l 1704 1043 l 1782 1246 l 1572 1246 m 1851 1246 l 1774 1043 l 1983 1043 l 2061 1246 l 1851 1246 z "},"Ý":{"ha":1751,"x_min":315,"x_max":2086,"o":"m 1968 1246 l 1793 1043 l 1613 1043 l 1756 1246 l 1968 1246 m 1765 144 q 1685 35 1736 69 q 1554 0 1635 0 l 999 0 l 1029 224 l 1426 224 q 1481 239 1461 224 q 1518 297 1501 254 l 1550 381 l 1253 381 q 1220 383 1239 381 q 1183 390 1201 386 q 1148 400 1164 394 q 1122 413 1132 406 q 1042 435 1082 424 q 951 458 1001 447 q 926 453 944 454 q 894 453 907 453 q 851 456 875 453 q 806 466 826 460 q 772 479 785 472 q 761 494 758 486 q 788 503 771 499 q 819 513 804 508 q 847 522 835 518 q 860 529 858 526 q 831 532 863 532 q 795 533 815 532 q 751 535 775 533 q 713 541 735 535 q 669 560 690 547 q 628 590 647 572 q 597 633 608 608 q 657 628 621 631 q 724 625 693 625 l 760 629 q 688 658 735 638 q 592 705 640 678 q 503 763 543 732 q 451 822 463 793 l 458 821 q 510 815 482 818 q 585 813 538 813 l 629 813 q 644 814 643 813 q 529 881 579 844 q 440 961 479 917 q 370 1060 400 1006 q 315 1182 340 1115 q 531 1107 417 1143 q 772 1043 646 1071 q 1038 999 899 1015 q 1328 982 1176 982 l 1633 982 l 1517 675 q 1509 618 1500 632 q 1553 604 1518 604 l 1636 604 l 1781 982 l 2086 982 l 1765 144 z "},"Þ":{"ha":1813,"x_min":315,"x_max":2058,"o":"m 1678 982 l 1328 982 q 1038 999 1176 982 q 772 1043 899 1015 q 531 1107 646 1071 q 315 1182 417 1143 q 370 1060 340 1115 q 440 961 400 1006 q 529 881 479 917 q 644 814 579 844 q 629 813 643 813 l 585 813 q 510 815 538 813 q 458 821 482 818 l 451 822 q 503 763 463 793 q 592 705 543 732 q 688 658 640 678 q 760 629 735 638 l 724 625 q 657 628 693 625 q 597 633 621 631 q 628 590 608 608 q 669 560 647 572 q 713 541 690 547 q 751 535 735 535 q 795 533 775 533 q 831 532 815 532 q 860 529 863 532 q 847 522 858 526 q 819 513 835 518 q 788 503 804 508 q 761 494 771 499 q 772 479 758 486 q 806 466 785 472 q 851 456 826 460 q 894 453 875 453 q 926 453 907 453 q 951 458 944 454 q 1033 437 1001 447 q 1107 413 1065 426 l 1147 396 l 996 0 l 1301 0 l 1365 165 l 1682 165 q 1812 200 1763 165 q 1890 310 1861 235 l 2029 674 q 2035 783 2058 749 q 1932 818 2013 818 l 1615 818 l 1678 982 m 1450 389 l 1529 594 l 1629 594 q 1673 579 1664 594 q 1665 521 1682 564 l 1643 463 q 1606 404 1626 419 q 1550 389 1585 389 l 1450 389 z "},"ß":{"ha":858,"x_min":-6,"x_max":1167,"o":"m 571 982 q 441 947 490 982 q 363 838 392 913 l -6 -122 l 300 -122 l 610 685 q 647 743 626 728 q 703 758 668 758 l 739 758 q 782 743 774 758 q 774 685 790 728 l 769 674 q 733 615 753 631 q 678 600 713 600 l 654 600 l 569 379 l 593 379 q 636 364 628 379 q 628 306 644 349 l 624 294 q 588 236 608 251 q 532 221 567 221 l 508 221 l 424 0 l 664 0 q 794 35 744 0 q 872 144 843 69 l 961 378 q 965 406 967 390 q 960 438 964 422 q 949 467 956 453 q 939 488 943 481 q 967 509 950 496 q 999 538 983 522 q 1028 570 1015 554 q 1046 599 1042 586 l 1138 838 q 1144 947 1167 913 q 1040 982 1121 982 l 571 982 z "},"à":{"ha":965,"x_min":21,"x_max":1053,"o":"m 626 982 l 21 0 l 478 0 l 622 224 l 456 224 l 726 665 l 644 0 l 944 0 l 1053 982 l 626 982 m 754 1246 l 774 1043 l 954 1043 l 967 1246 l 754 1246 z "},"á":{"ha":965,"x_min":21,"x_max":1107,"o":"m 626 982 l 21 0 l 478 0 l 622 224 l 456 224 l 726 665 l 644 0 l 944 0 l 1053 982 l 626 982 m 894 1246 l 751 1043 l 932 1043 l 1107 1246 l 894 1246 z "},"â":{"ha":965,"x_min":21,"x_max":1101,"o":"m 626 982 l 21 0 l 478 0 l 622 224 l 456 224 l 726 665 l 644 0 l 944 0 l 1053 982 l 626 982 m 775 1246 l 613 1043 l 813 1043 l 899 1151 l 901 1043 l 1101 1043 l 1094 1246 l 775 1246 z "},"ã":{"ha":965,"x_min":21,"x_max":1260,"o":"m 626 982 l 21 0 l 478 0 l 622 224 l 456 224 l 726 665 l 644 0 l 944 0 l 1053 982 l 626 982 m 1097 1043 l 1260 1246 l 1060 1246 l 974 1138 l 971 1246 l 710 1246 l 547 1043 l 747 1043 l 832 1150 l 836 1043 l 1097 1043 z "},"ä":{"ha":965,"x_min":21,"x_max":1179,"o":"m 690 1246 l 613 1043 l 822 1043 l 900 1246 l 690 1246 m 969 1246 l 892 1043 l 1101 1043 l 1179 1246 l 969 1246 m 626 982 l 21 0 l 478 0 l 622 224 l 456 224 l 726 665 l 644 0 l 944 0 l 1053 982 l 626 982 z "},"å":{"ha":965,"x_min":21,"x_max":1053,"o":"m 1040 1246 l 963 1043 l 753 1043 l 831 1246 l 1040 1246 m 1053 982 l 944 0 l 644 0 l 726 665 l 456 224 l 622 224 l 478 0 l 21 0 l 626 982 l 1053 982 m 882 1172 l 860 1115 l 911 1115 l 933 1172 l 882 1172 z "},"æ":{"ha":1511,"x_min":21,"x_max":1867,"o":"m 1053 982 l 626 982 l 21 0 l 478 0 l 622 224 l 456 224 l 726 665 l 644 0 l 1431 0 l 1575 224 l 1182 224 l 1242 379 l 1514 379 l 1657 600 l 1326 600 l 1388 758 l 1722 758 l 1867 982 l 1167 982 l 1006 561 l 1053 982 z "},"ç":{"ha":842,"x_min":68,"x_max":1150,"o":"m 440 -236 l 575 -32 l 588 0 l 744 0 l 886 224 l 497 224 q 453 239 463 224 q 461 297 444 254 l 610 685 q 647 743 626 728 q 703 758 668 758 l 722 758 q 765 744 757 758 q 758 686 774 729 l 740 639 l 1046 639 l 1121 838 q 1127 947 1150 913 q 1024 982 1104 982 l 574 982 q 442 947 493 982 q 363 838 392 913 l 97 144 q 92 35 68 69 q 197 0 117 0 l 378 0 l 357 -53 l 254 -53 l 136 -236 l 440 -236 z "},"è":{"ha":763,"x_min":42,"x_max":1118,"o":"m 701 1246 l 721 1043 l 901 1043 l 914 1246 l 701 1246 m 682 0 l 826 224 l 433 224 l 493 379 l 765 379 l 908 600 l 578 600 l 639 758 l 974 758 l 1118 982 l 418 982 l 42 0 l 682 0 z "},"é":{"ha":763,"x_min":42,"x_max":1118,"o":"m 817 1246 l 674 1043 l 854 1043 l 1029 1246 l 817 1246 m 682 0 l 826 224 l 433 224 l 493 379 l 765 379 l 908 600 l 578 600 l 639 758 l 974 758 l 1118 982 l 418 982 l 42 0 l 682 0 z "},"ê":{"ha":763,"x_min":42,"x_max":1118,"o":"m 706 1246 l 543 1043 l 743 1043 l 829 1151 l 832 1043 l 1032 1043 l 1025 1246 l 706 1246 m 682 0 l 826 224 l 433 224 l 493 379 l 765 379 l 908 600 l 578 600 l 639 758 l 974 758 l 1118 982 l 418 982 l 42 0 l 682 0 z "},"ë":{"ha":763,"x_min":42,"x_max":1118,"o":"m 621 1246 l 543 1043 l 753 1043 l 831 1246 l 621 1246 m 900 1246 l 822 1043 l 1032 1043 l 1110 1246 l 900 1246 m 682 0 l 826 224 l 433 224 l 493 379 l 765 379 l 908 600 l 578 600 l 639 758 l 974 758 l 1118 982 l 418 982 l 42 0 l 682 0 z "},"ì":{"ha":389,"x_min":42,"x_max":746,"o":"m 533 1246 l 553 1043 l 733 1043 l 746 1246 l 533 1246 m 724 982 l 418 982 l 42 0 l 347 0 l 724 982 z "},"í":{"ha":389,"x_min":42,"x_max":811,"o":"m 599 1246 l 456 1043 l 636 1043 l 811 1246 l 599 1246 m 724 982 l 418 982 l 42 0 l 347 0 l 724 982 z "},"î":{"ha":389,"x_min":42,"x_max":839,"o":"m 513 1246 l 350 1043 l 550 1043 l 636 1151 l 639 1043 l 839 1043 l 832 1246 l 513 1246 m 724 982 l 418 982 l 42 0 l 347 0 l 724 982 z "},"ï":{"ha":389,"x_min":42,"x_max":917,"o":"m 428 1246 l 350 1043 l 560 1043 l 638 1246 l 428 1246 m 707 1246 l 629 1043 l 839 1043 l 917 1246 l 707 1246 m 724 982 l 418 982 l 42 0 l 347 0 l 724 982 z "},"ð":{"ha":847,"x_min":68,"x_max":1156,"o":"m 694 671 l 729 758 q 770 742 761 757 q 763 685 779 726 l 732 604 l 274 604 l 97 144 q 91 35 68 69 q 194 0 114 0 l 650 0 q 781 35 731 0 q 861 144 832 69 l 1126 838 q 1131 947 1156 913 q 1026 982 1107 982 l 814 982 l 849 1069 l 629 1069 l 594 982 l 418 982 l 394 758 l 510 758 l 475 671 l 694 671 m 486 382 l 647 382 l 614 297 q 577 239 597 254 q 522 224 557 224 l 489 224 q 445 238 454 224 q 453 296 436 253 l 486 382 z "},"ñ":{"ha":864,"x_min":42,"x_max":1226,"o":"m 1064 1043 l 1226 1246 l 1026 1246 l 940 1138 l 938 1246 l 676 1246 l 514 1043 l 714 1043 l 799 1150 l 803 1043 l 1064 1043 m 1199 982 l 893 982 l 753 615 l 639 982 l 418 982 l 42 0 l 347 0 l 488 367 l 601 0 l 822 0 l 1199 982 z "},"ò":{"ha":864,"x_min":68,"x_max":1172,"o":"m 631 297 q 594 239 614 254 q 539 224 574 224 l 497 224 q 453 239 463 224 q 461 297 444 254 l 610 685 q 647 743 626 728 q 703 758 668 758 l 744 758 q 788 743 779 758 q 779 685 796 728 l 631 297 m 667 0 q 798 35 747 0 q 878 144 849 69 l 1143 838 q 1148 947 1172 913 q 1043 982 1124 982 l 571 982 q 441 947 490 982 q 363 838 392 913 l 97 144 q 91 35 68 69 q 194 0 114 0 l 667 0 m 746 1246 l 765 1043 l 946 1043 l 958 1246 l 746 1246 z "},"ó":{"ha":864,"x_min":68,"x_max":1172,"o":"m 861 1246 l 718 1043 l 899 1043 l 1074 1246 l 861 1246 m 669 0 q 799 35 750 0 q 878 144 849 69 l 1143 838 q 1149 947 1172 913 q 1046 982 1126 982 l 574 982 q 442 947 493 982 q 363 838 392 913 l 97 144 q 92 35 68 69 q 197 0 117 0 l 669 0 m 610 685 q 647 743 626 728 q 703 758 668 758 l 744 758 q 788 743 779 758 q 779 685 796 728 l 631 297 q 594 239 614 254 q 539 224 574 224 l 497 224 q 453 239 463 224 q 461 297 444 254 l 610 685 z "},"ô":{"ha":864,"x_min":68,"x_max":1172,"o":"m 669 0 q 799 35 750 0 q 878 144 849 69 l 1143 838 q 1149 947 1172 913 q 1046 982 1126 982 l 574 982 q 442 947 493 982 q 363 838 392 913 l 97 144 q 92 35 68 69 q 197 0 117 0 l 669 0 m 610 685 q 647 743 626 728 q 703 758 668 758 l 744 758 q 788 743 779 758 q 779 685 796 728 l 631 297 q 594 239 614 254 q 539 224 574 224 l 497 224 q 453 239 463 224 q 461 297 444 254 l 610 685 m 750 1246 l 588 1043 l 788 1043 l 874 1151 l 876 1043 l 1076 1043 l 1069 1246 l 750 1246 z "},"õ":{"ha":864,"x_min":68,"x_max":1226,"o":"m 1064 1043 l 1226 1246 l 1026 1246 l 940 1138 l 938 1246 l 676 1246 l 514 1043 l 714 1043 l 799 1150 l 803 1043 l 1064 1043 m 669 0 q 799 35 750 0 q 878 144 849 69 l 1143 838 q 1149 947 1172 913 q 1046 982 1126 982 l 574 982 q 442 947 493 982 q 363 838 392 913 l 97 144 q 92 35 68 69 q 197 0 117 0 l 669 0 m 610 685 q 647 743 626 728 q 703 758 668 758 l 744 758 q 788 743 779 758 q 779 685 796 728 l 631 297 q 594 239 614 254 q 539 224 574 224 l 497 224 q 453 239 463 224 q 461 297 444 254 l 610 685 z "},"ö":{"ha":864,"x_min":68,"x_max":1172,"o":"m 665 1246 l 588 1043 l 797 1043 l 875 1246 l 665 1246 m 944 1246 l 867 1043 l 1076 1043 l 1154 1246 l 944 1246 m 610 685 q 647 743 626 728 q 703 758 668 758 l 744 758 q 788 743 779 758 q 779 685 796 728 l 631 297 q 594 239 614 254 q 539 224 574 224 l 497 224 q 453 239 463 224 q 461 297 444 254 l 610 685 m 669 0 q 799 35 750 0 q 878 144 849 69 l 1143 838 q 1149 947 1172 913 q 1046 982 1126 982 l 574 982 q 442 947 493 982 q 363 838 392 913 l 97 144 q 92 35 68 69 q 197 0 117 0 l 669 0 z "},"÷":{"ha":696,"x_min":181,"x_max":892,"o":"m 364 328 l 278 106 l 499 106 l 585 328 l 364 328 m 572 871 l 486 649 l 707 649 l 793 871 l 572 871 m 747 379 l 892 600 l 326 600 l 181 379 l 747 379 z "},"ø":{"ha":864,"x_min":68,"x_max":1172,"o":"m 557 492 q 590 537 567 517 q 646 557 614 557 q 686 538 676 557 q 686 492 696 518 q 649 445 675 464 q 596 426 624 426 q 558 446 569 426 q 557 492 546 465 m 197 0 q 92 35 117 0 q 97 144 68 69 l 363 838 q 442 947 392 913 q 574 982 493 982 l 1046 982 q 1149 947 1126 982 q 1143 838 1172 913 l 878 144 q 799 35 849 69 q 669 0 750 0 l 197 0 m 460 297 q 452 239 443 254 q 496 224 461 224 l 540 224 q 595 239 575 224 q 632 297 615 254 l 781 685 q 789 743 797 728 q 746 758 781 758 l 701 758 q 646 743 667 758 q 608 685 625 728 l 460 297 z "},"ù":{"ha":861,"x_min":68,"x_max":1196,"o":"m 628 297 q 591 239 611 254 q 536 224 571 224 l 497 224 q 453 239 463 224 q 461 297 444 254 l 724 982 l 418 982 l 97 144 q 91 35 68 69 q 194 0 114 0 l 664 0 q 795 35 744 0 q 875 144 846 69 l 1196 982 l 890 982 l 628 297 m 744 1246 l 764 1043 l 944 1043 l 957 1246 l 744 1246 z "},"ú":{"ha":861,"x_min":68,"x_max":1196,"o":"m 860 1246 l 717 1043 l 897 1043 l 1072 1246 l 860 1246 m 461 297 l 724 982 l 418 982 l 97 144 q 92 35 68 69 q 197 0 117 0 l 667 0 q 797 35 747 0 q 875 144 846 69 l 1196 982 l 890 982 l 628 297 q 591 239 611 254 q 536 224 571 224 l 497 224 q 453 239 463 224 q 461 297 444 254 z "},"û":{"ha":861,"x_min":68,"x_max":1196,"o":"m 749 1246 l 586 1043 l 786 1043 l 872 1151 l 875 1043 l 1075 1043 l 1068 1246 l 749 1246 m 461 297 l 724 982 l 418 982 l 97 144 q 92 35 68 69 q 197 0 117 0 l 667 0 q 797 35 747 0 q 875 144 846 69 l 1196 982 l 890 982 l 628 297 q 591 239 611 254 q 536 224 571 224 l 497 224 q 453 239 463 224 q 461 297 444 254 z "},"ü":{"ha":861,"x_min":68,"x_max":1196,"o":"m 664 1246 l 586 1043 l 796 1043 l 874 1246 l 664 1246 m 943 1246 l 865 1043 l 1075 1043 l 1153 1246 l 943 1246 m 461 297 l 724 982 l 418 982 l 97 144 q 92 35 68 69 q 197 0 117 0 l 667 0 q 797 35 747 0 q 875 144 846 69 l 1196 982 l 890 982 l 628 297 q 591 239 611 254 q 536 224 571 224 l 497 224 q 453 239 463 224 q 461 297 444 254 z "},"ý":{"ha":844,"x_min":90,"x_max":1178,"o":"m 847 1246 l 704 1043 l 885 1043 l 1060 1246 l 847 1246 m 872 982 l 728 604 l 644 604 q 601 618 610 604 q 608 675 592 632 l 725 982 l 419 982 l 244 525 q 240 415 215 450 q 344 381 264 381 l 642 381 l 610 297 q 573 239 593 254 q 518 224 553 224 l 121 224 l 90 0 l 646 0 q 777 35 726 0 q 857 144 828 69 l 1178 982 l 872 982 z "},"þ":{"ha":897,"x_min":81,"x_max":1143,"o":"m 763 982 l 454 982 l 313 758 l 372 758 l 81 0 l 386 0 l 450 165 l 767 165 q 897 200 847 165 q 975 310 946 235 l 1114 674 q 1120 783 1143 749 q 1017 818 1097 818 l 700 818 l 763 982 m 535 389 l 614 594 l 714 594 q 758 579 749 594 q 750 521 767 564 l 728 463 q 690 404 711 419 q 635 389 669 389 l 535 389 z "},"ÿ":{"ha":844,"x_min":90,"x_max":1178,"o":"m 656 1246 l 578 1043 l 788 1043 l 865 1246 l 656 1246 m 935 1246 l 857 1043 l 1067 1043 l 1144 1246 l 935 1246 m 872 982 l 728 604 l 644 604 q 601 618 610 604 q 608 675 592 632 l 725 982 l 419 982 l 244 525 q 240 415 215 450 q 344 381 264 381 l 642 381 l 610 297 q 573 239 593 254 q 518 224 553 224 l 121 224 l 90 0 l 646 0 q 777 35 726 0 q 857 144 828 69 l 1178 982 l 872 982 z "}}}
